<svg width="403" height="344" viewBox="0 0 403 344" fill="none" xmlns="http://www.w3.org/2000/svg">
<g clip-path="url(#clip0_728_249)">
<path d="M171.241 121.301L171.683 108.392L163.773 105.799C163.433 101.424 162.724 97.0856 161.653 92.8304L168.366 87.9183L163.812 75.795L155.51 76.4631C153.542 72.5571 151.244 68.8266 148.641 65.3124L152.939 58.1308L144.107 48.6896L136.689 52.4916C133.353 49.6368 129.788 47.0607 126.031 44.7893L127.229 36.5369L115.453 31.1924L110.055 37.5193C105.892 36.1858 101.625 35.2 97.2983 34.572L95.3356 26.4865L82.4018 26.0444L79.8504 33.9727C75.4848 34.3163 71.1553 35.0228 66.9067 36.0849L61.9216 29.4044L49.8121 33.9334L50.4794 42.2448C46.5799 44.2454 42.8542 46.5687 39.3413 49.1906L32.1188 44.7893L22.649 53.6312L26.4468 61.0978C23.5944 64.4209 21.0335 67.9839 18.7924 71.7474L10.5591 70.5095L5.18148 82.2987L11.5405 87.6923C10.1991 91.8582 9.2142 96.1309 8.59649 100.464L0.422065 102.517L-0.0195312 115.426L7.92919 118.02C8.25798 122.392 8.96389 126.728 10.039 130.978L3.32678 135.891L7.88993 148.024L16.1919 147.356C18.1553 151.264 20.4537 154.995 23.0612 158.506L18.7532 165.688L27.5851 175.129L35.0039 171.327C38.3312 174.181 41.8892 176.754 45.6414 179.02L44.405 187.262L56.1808 192.616L61.6076 186.29C65.7712 187.635 70.0379 188.637 74.3648 189.286L76.3274 197.371L89.2612 197.814L91.8127 189.885C96.181 189.538 100.513 188.831 104.766 187.773L109.673 194.454L121.782 189.925L121.154 181.613C125.047 179.6 128.771 177.277 132.292 174.667L139.426 178.97L148.896 170.129L145.099 162.662C147.952 159.34 150.513 155.776 152.753 152.012L160.986 153.25L166.364 141.461L160.005 136.058C161.369 131.895 162.37 127.622 162.998 123.286L171.241 121.301ZM84.1093 163.124C73.9898 162.782 64.1991 159.442 55.9755 153.529C47.752 147.615 41.4651 139.392 37.9102 129.901C34.3553 120.409 33.692 110.076 36.0043 100.207C38.3165 90.3378 43.5005 81.3772 50.9004 74.4583C58.3002 67.5394 67.5836 62.9732 77.576 61.3371C87.5685 59.701 97.8212 61.0686 107.037 65.267C116.253 69.4653 124.018 76.3057 129.351 84.923C134.683 93.5402 137.342 103.547 136.993 113.678C136.527 127.255 130.694 140.09 120.777 149.363C110.86 158.635 97.6709 163.585 84.1093 163.124V163.124Z" fill="#EBEBEB"/>
<path d="M391.97 78.6044L395.218 75.5686L393.932 73.0045C394.913 71.8555 395.796 70.6264 396.572 69.3302L399.418 69.7526L401.253 65.6853L399.075 63.8285C399.544 62.3905 399.889 60.9146 400.105 59.4174L402.902 58.7198L403.039 54.2596L400.311 53.3754C400.191 51.8648 399.948 50.3665 399.585 48.8955L401.891 47.1762L400.321 43.0009L397.465 43.2268C396.777 41.8802 395.979 40.5922 395.081 39.3757L396.562 36.9196L393.51 33.6579L390.959 34.9645C389.81 33.985 388.582 33.1012 387.289 32.3218L387.701 29.4727L383.648 27.6159L381.784 29.8068C380.345 29.3581 378.871 29.0295 377.378 28.8243L376.681 26.0342L372.226 25.8672L371.333 28.618C369.83 28.733 368.339 28.9762 366.877 29.345L365.17 27.0363L360.989 28.5984L361.225 31.4671C359.876 32.1498 358.589 32.9485 357.378 33.8544L354.905 32.3709L351.647 35.4066L352.913 37.9119C351.925 39.0575 351.039 40.2869 350.264 41.5862L347.428 41.1637L345.583 45.231L347.771 47.0976C347.317 48.5336 346.989 50.0062 346.79 51.499L343.983 52.1965L343.846 56.6567L346.584 57.5409C346.695 59.0518 346.935 60.5505 347.3 62.0208L344.984 63.7303L346.554 67.9056L349.42 67.6895C350.108 69.0361 350.906 70.3241 351.804 71.5406L350.322 73.9967L353.374 77.2584L355.926 75.9518C357.073 76.9345 358.301 77.8185 359.596 78.5945L359.174 81.4338L363.237 83.2906L365.101 81.1096C366.542 81.5536 368.015 81.8821 369.507 82.092L370.204 84.8821L374.659 85.0491L375.552 82.2983C377.055 82.184 378.546 81.9408 380.007 81.5713L381.715 83.88L385.895 82.318L385.67 79.4493C387.015 78.7656 388.299 77.9669 389.507 77.0619L391.97 78.6044ZM368.791 59.8104C367.934 58.8911 367.369 57.738 367.166 56.497C366.964 55.2559 367.134 53.9827 367.655 52.8385C368.176 51.6942 369.024 50.7302 370.092 50.0685C371.16 49.4068 372.4 49.0771 373.655 49.1211C374.91 49.1651 376.124 49.5808 377.143 50.3157C378.163 51.0505 378.941 52.0715 379.381 53.2494C379.82 54.4274 379.901 55.7094 379.612 56.9332C379.324 58.157 378.679 59.2677 377.76 60.1247C377.15 60.7005 376.432 61.1494 375.648 61.4455C374.864 61.7417 374.028 61.8791 373.19 61.8498C372.353 61.8206 371.529 61.6253 370.767 61.2752C370.005 60.9251 369.32 60.4272 368.752 59.8104H368.791Z" fill="#EBEBEB"/>
<path d="M273.23 211.155L263.083 204.131C262.088 200.473 260.72 196.927 259.001 193.55L261.601 183.332L246.881 167.555L236.519 169.451C233.267 167.501 229.825 165.891 226.244 164.647V164.647L219.944 154.026L198.355 153.29L191.348 163.448C187.699 164.443 184.161 165.809 180.789 167.525L170.584 164.922L154.823 179.658L156.717 190.013C154.771 193.274 153.167 196.728 151.929 200.319L141.32 206.626L140.584 228.24L150.741 235.254C151.719 238.932 153.084 242.495 154.814 245.884V245.884L152.184 256.013L166.904 271.791L177.198 269.905C180.473 271.857 183.939 273.47 187.541 274.719V274.719L193.831 285.319L215.42 286.066L222.417 275.907C226.099 274.912 229.67 273.542 233.074 271.82L243.221 274.414L258.991 259.678L257.097 249.323C259.049 246.061 260.654 242.604 261.886 239.007V239.007L272.494 232.7L273.23 211.155ZM206.058 243.959C201.266 243.795 196.629 242.212 192.735 239.41C188.841 236.608 185.864 232.713 184.181 228.217C182.498 223.722 182.184 218.827 183.279 214.153C184.374 209.479 186.829 205.235 190.333 201.957C193.837 198.68 198.234 196.516 202.966 195.74C207.699 194.964 212.555 195.61 216.92 197.596C221.286 199.583 224.965 202.821 227.493 206.901C230.021 210.981 231.284 215.719 231.121 220.518C230.896 226.953 228.129 233.036 223.429 237.431C218.728 241.826 212.477 244.173 206.049 243.959H206.058Z" fill="#EBEBEB"/>
<path d="M296.34 149.91H296.271L279.275 149.33C278.931 149.324 278.593 149.231 278.295 149.059C277.996 148.887 277.746 148.643 277.567 148.348L272.985 140.636C270.515 139.731 268.125 138.62 265.841 137.315L258.51 138.582C258.169 138.645 257.817 138.62 257.487 138.51C257.158 138.4 256.862 138.209 256.626 137.954L245.017 125.516C244.773 125.258 244.6 124.942 244.514 124.598C244.428 124.254 244.432 123.893 244.526 123.551L246.381 116.271C245.232 113.912 244.293 111.457 243.574 108.933L236.185 103.824C235.898 103.627 235.666 103.361 235.51 103.05C235.354 102.739 235.279 102.393 235.292 102.046L235.871 85.0299C235.881 84.686 235.976 84.3498 236.147 84.0515C236.318 83.7532 236.56 83.5021 236.852 83.3204L244.575 78.7325C245.466 76.2653 246.573 73.8819 247.882 71.6098L246.528 64.2121C246.465 63.8686 246.489 63.5148 246.599 63.1833C246.709 62.8518 246.9 62.5535 247.156 62.316L259.58 50.7036C259.837 50.4588 260.152 50.2841 260.496 50.1964C260.839 50.1086 261.2 50.1108 261.542 50.2025L268.843 52.0692C271.194 50.9182 273.64 49.9747 276.154 49.2496L281.257 41.8518C281.447 41.558 281.712 41.3202 282.024 41.163C282.336 41.0058 282.685 40.935 283.033 40.9578L300.02 41.5473C300.365 41.5546 300.704 41.6483 301.003 41.8199C301.303 41.9915 301.556 42.2355 301.737 42.5297L306.32 50.2516C308.773 51.153 311.143 52.264 313.405 53.5723L320.824 52.2067C321.166 52.1432 321.518 52.1675 321.847 52.2775C322.177 52.3875 322.473 52.5795 322.708 52.8354L334.317 65.2731C334.559 65.5318 334.731 65.848 334.817 66.1918C334.903 66.5356 334.9 66.8957 334.808 67.238L332.943 74.5375C334.093 76.8917 335.039 79.3404 335.77 81.8566L343.149 86.9653C343.436 87.1622 343.668 87.4285 343.824 87.7395C343.98 88.0504 344.055 88.3957 344.042 88.7435L343.463 105.749C343.452 106.094 343.356 106.431 343.185 106.731C343.014 107.03 342.773 107.284 342.482 107.469L334.759 112.057C333.862 114.518 332.756 116.898 331.452 119.17L332.806 126.577C332.87 126.919 332.845 127.271 332.735 127.601C332.625 127.931 332.434 128.228 332.178 128.463L319.676 140.086C319.419 140.33 319.103 140.503 318.759 140.589C318.415 140.675 318.055 140.671 317.713 140.577L310.452 138.72C308.085 139.866 305.626 140.809 303.101 141.54L298.048 148.928C297.866 149.219 297.614 149.461 297.317 149.633C297.019 149.804 296.683 149.899 296.34 149.91V149.91ZM280.551 145.224L295.27 145.725L300.177 138.661C300.449 138.249 300.866 137.954 301.345 137.836C304.106 137.08 306.786 136.05 309.343 134.761V134.761C309.788 134.546 310.295 134.494 310.775 134.613L317.645 136.372L328.439 126.302L327.203 119.199C327.107 118.703 327.198 118.188 327.458 117.755C328.915 115.322 330.116 112.744 331.04 110.062C331.196 109.576 331.524 109.164 331.962 108.903L339.351 104.521L339.852 89.7849L332.786 84.8727C332.414 84.6182 332.135 84.2491 331.992 83.8215C331.992 83.7724 331.992 83.7134 331.992 83.6545C331.235 80.9389 330.21 78.306 328.93 75.795C328.703 75.3455 328.647 74.8286 328.773 74.341L330.539 67.3853L320.481 56.5785L313.425 57.8754C312.932 57.9648 312.424 57.8741 311.992 57.6199C309.558 56.1578 306.98 54.9497 304.299 54.0144C304.145 53.965 303.997 53.8992 303.857 53.8179C303.574 53.6412 303.339 53.3985 303.17 53.1105L298.744 45.6931L284.024 45.1823L279.118 52.2656C278.825 52.6809 278.393 52.9772 277.901 53.1007C275.168 53.8484 272.518 54.8721 269.992 56.1561C269.546 56.3836 269.033 56.4395 268.549 56.3133L261.601 54.5449L250.807 64.6148L252.102 71.6589C252.179 72.1033 252.114 72.5605 251.916 72.9656L251.817 73.1326C250.358 75.5746 249.158 78.1626 248.236 80.8545C248.073 81.3161 247.754 81.7057 247.333 81.9549L239.943 86.3463L239.443 101.083L246.518 105.995C246.922 106.271 247.214 106.682 247.343 107.154C248.078 109.913 249.101 112.587 250.395 115.132C250.465 115.277 250.52 115.428 250.561 115.584C250.635 115.907 250.635 116.243 250.561 116.566L248.795 123.443L258.854 134.25L265.86 132.963C266.35 132.873 266.855 132.964 267.283 133.218C269.736 134.678 272.33 135.886 275.026 136.824C275.512 136.968 275.924 137.296 276.174 137.738L280.551 145.224ZM289.647 126.587C289.284 126.587 288.921 126.587 288.558 126.587C280.401 126.443 272.63 123.079 266.937 117.228C261.245 111.376 258.091 103.511 258.163 95.3429C258.235 87.175 261.526 79.3661 267.321 73.6158C273.115 67.8655 280.944 64.6393 289.103 64.6393C297.262 64.6393 305.09 67.8655 310.885 73.6158C316.68 79.3661 319.971 87.175 320.043 95.3429C320.115 103.511 316.961 111.376 311.268 117.228C305.576 123.079 297.805 126.443 289.647 126.587ZM289.647 68.5348C282.519 68.6578 275.727 71.5952 270.751 76.7073C265.775 81.8195 263.018 88.6925 263.079 95.8302C263.141 102.968 266.016 109.792 271.079 114.818C276.142 119.843 282.984 122.663 290.114 122.663C297.243 122.663 304.085 119.843 309.148 114.818C314.211 109.792 317.087 102.968 317.148 95.8302C317.21 88.6925 314.452 81.8195 309.476 76.7073C304.5 71.5952 297.709 68.6578 290.58 68.5348H289.647Z" fill="#EBEBEB"/>
<path d="M335.485 27.4195L328.449 25.5332L326.555 18.4892L329.313 15.7285L332.227 21.7508L338.243 24.6687L335.485 27.4195Z" fill="#E0E0E0"/>
<path d="M335.917 22.7038C336.222 22.3987 336.464 22.0364 336.629 21.6378C336.793 21.2391 336.878 20.8118 336.878 20.3803C336.878 19.9488 336.793 19.5215 336.629 19.1229C336.464 18.7242 336.222 18.362 335.917 18.0569C335.612 17.7518 335.25 17.5097 334.852 17.3446C334.454 17.1795 334.027 17.0945 333.596 17.0945C333.165 17.0945 332.738 17.1795 332.34 17.3446C331.942 17.5097 331.58 17.7518 331.275 18.0569L334.779 12.791L339.469 15.1685L340.5 20.0807L335.917 22.7038Z" fill="#E0E0E0"/>
<path d="M328.753 16.2985L333.915 11.1309L340.941 13.0073L342.835 20.0514L337.673 25.219L330.637 23.3229L328.753 16.2985ZM338.125 20.523C338.584 20.0625 338.897 19.4761 339.023 18.8378C339.15 18.1994 339.085 17.5379 338.836 16.9367C338.587 16.3355 338.165 15.8217 337.625 15.4602C337.084 15.0987 336.449 14.9058 335.799 14.9058C335.149 14.9058 334.513 15.0987 333.973 15.4602C333.432 15.8217 333.011 16.3355 332.762 16.9367C332.513 17.5379 332.448 18.1994 332.574 18.8378C332.701 19.4761 333.014 20.0625 333.473 20.523C334.095 21.1335 334.932 21.4739 335.803 21.4702C336.674 21.4665 337.508 21.1191 338.125 20.5033V20.523Z" fill="#F0F0F0"/>
<path d="M47.7513 215.448L51.5196 214.436L52.5402 210.654L51.0584 209.17L49.4981 212.403L46.2695 213.965L47.7513 215.448Z" fill="#E0E0E0"/>
<path d="M47.5259 212.914C47.2306 212.576 47.0746 212.139 47.0894 211.69C47.1043 211.242 47.2889 210.816 47.6058 210.498C47.9227 210.181 48.3483 209.996 48.7963 209.981C49.2443 209.966 49.6812 210.123 50.0184 210.418L48.1441 207.599L45.5632 208.856L45.0137 211.509L47.5259 212.914Z" fill="#E0E0E0"/>
<path d="M51.3529 209.465L48.5856 206.694L44.8075 207.677L43.8262 211.459L46.5444 214.259L50.3225 213.277L51.3529 209.465ZM46.3285 211.734C46.1466 211.575 45.9993 211.38 45.8958 211.161C45.7923 210.942 45.7347 210.704 45.7267 210.462C45.7187 210.22 45.7604 209.979 45.8492 209.754C45.9381 209.529 46.0721 209.325 46.2431 209.153C46.4141 208.982 46.6184 208.848 46.8433 208.759C47.0682 208.67 47.309 208.628 47.5506 208.636C47.7923 208.644 48.0298 208.702 48.2483 208.806C48.4669 208.909 48.6618 209.057 48.8211 209.239C49.1164 209.576 49.2724 210.014 49.2575 210.462C49.2427 210.911 49.0581 211.337 48.7412 211.654C48.4242 211.972 47.9986 212.156 47.5506 212.171C47.1027 212.186 46.6658 212.03 46.3285 211.734V211.734Z" fill="#F0F0F0"/>
<path d="M34.1404 8.10484L37.2806 11.2486C37.6734 11.635 38.202 11.8515 38.7526 11.8515C39.3032 11.8515 39.8319 11.635 40.2246 11.2486V11.2486C40.6082 10.8542 40.8229 10.3255 40.8229 9.77498C40.8229 9.22447 40.6082 8.69572 40.2246 8.30133L37.0942 5.16735C36.7002 4.78328 36.1721 4.56836 35.6222 4.56836C35.0723 4.56836 34.5442 4.78328 34.1502 5.16735V5.16735C33.7659 5.5588 33.5497 6.08521 33.5479 6.6341C33.546 7.18298 33.7587 7.71083 34.1404 8.10484Z" fill="#F0F0F0"/>
<path d="M31.9324 0.294581C32.7519 0.0664621 33.62 0.0828672 34.4302 0.341787C35.2405 0.600706 35.9576 1.09087 36.4934 1.75209C37.0293 2.41331 37.3607 3.21679 37.4468 4.0639C37.5329 4.91101 37.3701 5.76486 36.9783 6.52061C36.5864 7.27636 35.9827 7.90111 35.2412 8.31816C34.4997 8.73521 33.6526 8.9264 32.8041 8.86825C31.9556 8.81009 31.1425 8.50514 30.4646 7.99082C29.7868 7.4765 29.2737 6.77521 28.9885 5.97306C28.8073 5.40675 28.7399 4.81017 28.79 4.21765C28.8401 3.62514 29.0067 3.0484 29.2803 2.52062C29.554 1.99285 29.9292 1.52446 30.3843 1.14242C30.8395 0.760385 31.3656 0.472244 31.9324 0.294581V0.294581Z" fill="#E0E0E0"/>
<path d="M28.5172 5.44718L28.9717 6.71387L38.2994 3.35922L37.8449 2.09253L28.5172 5.44718Z" fill="#F0F0F0"/>
<path d="M204.537 344C309.62 344 394.806 339.021 394.806 332.879C394.806 326.737 309.62 321.758 204.537 321.758C99.4548 321.758 14.2686 326.737 14.2686 332.879C14.2686 339.021 99.4548 344 204.537 344Z" fill="#F5F5F5"/>
<path d="M44.3067 42.4802C43.3254 38.1477 43.7571 34.5127 45.6216 31.5457C47.4862 28.5788 50.5283 26.6335 54.8559 25.6511C59.1835 24.6687 62.9224 25.0616 65.8467 26.889C68.7711 28.7163 70.7533 31.8011 71.7347 36.0256C72.4275 38.633 72.4847 41.3689 71.9015 44.003C71.331 46.1906 70.1255 48.1599 68.4374 49.6618C66.4324 51.3518 64.0259 52.4955 61.4504 52.9825C58.9257 53.6535 56.2822 53.7442 53.7176 53.2477C51.4883 52.7053 49.4719 51.5078 47.9278 49.8092C46.0829 47.7376 44.8318 45.2053 44.3067 42.4802V42.4802ZM52.4909 40.6529C53.0993 43.3251 54.0316 45.1328 55.2877 46.0759C55.9361 46.5088 56.6652 46.8059 57.4312 46.9493C58.1973 47.0928 58.9844 47.0797 59.7452 46.9109C60.506 46.742 61.2249 46.4209 61.8586 45.9667C62.4923 45.5126 63.0277 44.9349 63.4327 44.2683C64.1392 42.9027 64.149 40.7315 63.4817 37.7744C62.9126 35.279 61.9934 33.5695 60.7242 32.646C60.0852 32.1869 59.3515 31.877 58.5771 31.7393C57.8027 31.6016 57.0072 31.6395 56.2494 31.8503C55.4909 31.9925 54.7744 32.3051 54.154 32.7645C53.5336 33.224 53.0254 33.8183 52.6675 34.5028C51.9414 35.947 51.8727 37.9119 52.4909 40.6529Z" fill="#263238"/>
<path d="M75.5814 39.2382C75.2329 37.8994 75.1707 36.5019 75.399 35.1373C75.6273 33.7728 76.1409 32.4719 76.9062 31.3198C77.7642 30.0958 78.8551 29.0535 80.1165 28.2527C81.3778 27.4519 82.7847 26.9083 84.2563 26.6532C88.0966 25.7821 91.2499 26.2373 93.7163 28.0188C95.7919 29.6297 97.2031 31.9487 97.6808 34.5341C98.1586 37.1195 97.6696 39.7905 96.307 42.0382C94.7761 44.3764 92.2836 45.9352 88.8293 46.7146C86.1681 47.4594 83.3288 47.2295 80.8217 46.0662C79.4811 45.4102 78.3103 44.4524 77.4012 43.2678C76.4921 42.0833 75.8692 40.704 75.5814 39.2382V39.2382ZM82.9512 37.5386C83.1497 38.9115 83.8193 40.1723 84.8451 41.1048C85.2518 41.413 85.7205 41.6287 86.2188 41.7372C86.7172 41.8457 87.2331 41.8443 87.7308 41.733C88.2285 41.6218 88.6961 41.4034 89.101 41.093C89.5059 40.7827 89.8385 40.3877 90.0756 39.9357C90.5894 38.6161 90.6379 37.1605 90.213 35.8095C90.0065 34.4689 89.3445 33.2405 88.3386 32.3317C87.9483 32.0149 87.4903 31.7924 87.0001 31.6817C86.5099 31.5709 86.0009 31.5748 85.5124 31.6931C85.0033 31.7988 84.5248 32.0191 84.1133 32.3374C83.7019 32.6557 83.3682 33.0636 83.1376 33.5303C82.6092 34.8034 82.5432 36.2218 82.9512 37.5386Z" fill="#263238"/>
<path d="M105.011 50.2613L98.9956 23.7355L105.865 22.1636L106.513 25.0029C106.997 23.8706 107.701 22.8455 108.583 21.9868C109.551 21.1641 110.708 20.5937 111.949 20.3265C113.096 20.0141 114.304 19.9961 115.46 20.2743C116.616 20.5524 117.683 21.1178 118.563 21.918C120.503 23.7332 121.818 26.1165 122.322 28.7263C123.048 31.9192 122.832 34.5325 121.694 36.5858C121.152 37.5675 120.404 38.4196 119.501 39.0829C118.598 39.7462 117.561 40.2049 116.463 40.4271C115.405 40.6782 114.309 40.7216 113.235 40.5549C112.204 40.3741 111.222 39.9829 110.35 39.4054L112.43 48.5715L105.011 50.2613ZM108.554 31.7326C108.734 32.9596 109.347 34.0816 110.281 34.896C110.656 35.1832 111.09 35.3819 111.552 35.4771C112.015 35.5724 112.492 35.5618 112.95 35.4462C113.375 35.3609 113.774 35.1769 114.115 34.909C114.456 34.6411 114.729 34.2968 114.913 33.9038C115.33 32.6742 115.33 31.3411 114.913 30.1115C114.733 28.8784 114.142 27.7425 113.235 26.8892C112.898 26.6094 112.502 26.4107 112.077 26.3085C111.651 26.2063 111.208 26.2033 110.781 26.2997C110.33 26.3971 109.907 26.5953 109.544 26.8794C109.18 27.1635 108.885 27.5262 108.681 27.9404C108.201 29.1514 108.156 30.4919 108.554 31.7326Z" fill="#263238"/>
<path d="M125.472 32.3124L132.616 29.9644C132.996 30.6558 133.587 31.2068 134.304 31.5363C135.074 31.7597 135.89 31.7776 136.67 31.588C137.45 31.3985 138.166 31.0081 138.749 30.4556C138.912 30.2822 139.03 30.0717 139.093 29.8424C139.157 29.613 139.163 29.3716 139.112 29.1391C139.053 28.8732 138.916 28.6309 138.718 28.4436C138.521 28.2563 138.272 28.1324 138.003 28.0879C136.894 27.9661 135.776 27.9661 134.667 28.0879C132.806 28.2464 130.934 28.2464 129.073 28.0879C127.984 27.9296 126.962 27.4626 126.129 26.742C125.241 25.972 124.627 24.9331 124.381 23.7827C124.135 22.6322 124.27 21.4328 124.765 20.366C125.337 19.2244 126.227 18.2726 127.326 17.625C128.892 16.7347 130.592 16.1074 132.361 15.7682C134.048 15.3096 135.794 15.0978 137.542 15.1394C138.64 15.2102 139.704 15.5474 140.643 16.1218C141.643 16.7974 142.492 17.674 143.136 18.6958L136.266 20.9653C136.009 20.4534 135.583 20.047 135.059 19.8158C134.343 19.5594 133.567 19.5252 132.832 19.7176C132.182 19.8083 131.579 20.1083 131.114 20.5723C130.967 20.7304 130.86 20.9224 130.804 21.1313C130.747 21.3402 130.743 21.5598 130.79 21.7709C130.844 22.0032 130.966 22.2139 131.141 22.3752C131.316 22.5366 131.536 22.641 131.772 22.6747C132.869 22.8022 133.978 22.779 135.069 22.6059C136.961 22.3314 138.881 22.305 140.78 22.5273C141.975 22.6963 143.094 23.212 143.999 24.0108C144.817 24.7537 145.386 25.7316 145.628 26.8107C145.879 27.9679 145.787 29.1734 145.363 30.2788C144.844 31.5874 143.941 32.7077 142.772 33.4913C141.051 34.6178 139.123 35.3893 137.1 35.7607C133.6 36.5598 130.983 36.6286 129.25 35.9671C127.561 35.2917 126.204 33.9793 125.472 32.3124V32.3124Z" fill="#263238"/>
<path d="M149.436 8.0166H157.493V14.206L156.011 26.6534H151.026L149.436 14.2256V8.0166ZM149.829 28.5299H157.345V35.1908H149.829V28.5299Z" fill="#263238"/>
<path d="M85.4827 92.516H85.3061C80.8901 90.7967 78.2504 89.1266 76.8765 87.1126C75.8011 87.3166 74.6886 87.1649 73.7068 86.6803C72.5568 86.1168 71.6028 85.22 70.9689 84.1063C70.6357 84.3623 70.2433 84.5299 69.8282 84.5934C69.413 84.657 68.9885 84.6144 68.5941 84.4698C67.3847 84.0168 66.3527 83.1868 65.6502 82.1022C65.2107 82.4299 64.6644 82.5806 64.1193 82.5246C61.1753 82.2888 57.25 76.4728 56.9655 70.2834C56.9626 70.1528 57.0098 70.026 57.0974 69.9292C57.185 69.8323 57.3064 69.7728 57.4365 69.7628C57.5009 69.7601 57.5653 69.7702 57.6258 69.7925C57.6863 69.8148 57.7419 69.8488 57.7893 69.8926C57.8367 69.9364 57.875 69.9891 57.902 70.0478C57.929 70.1064 57.9443 70.1698 57.9468 70.2343C58.2216 76.1289 61.98 81.3653 64.2076 81.5422C64.3697 81.5604 64.5338 81.5464 64.6904 81.5008C64.847 81.4553 64.9931 81.3792 65.1203 81.2769C64.3528 79.8762 63.8708 78.3369 63.7023 76.7482C63.5339 75.1595 63.6823 73.5532 64.1389 72.0224C64.9829 69.0751 65.7287 67.9158 66.6315 68.0926C68.3194 68.5151 68.0937 74.9697 67.2007 79.1843C67.0653 79.9445 66.7855 80.6715 66.3763 81.326C66.9548 82.2972 67.8282 83.0579 68.8689 83.4972C69.1463 83.6029 69.4482 83.6268 69.7387 83.5658C70.0292 83.5049 70.2961 83.3617 70.5077 83.1534C69.7423 81.2573 69.5264 78.6636 70.6255 75.3528C71.9993 71.0105 72.5881 70.8926 72.8923 70.814C73.0068 70.7899 73.1256 70.7973 73.2361 70.8353C73.3467 70.8734 73.4449 70.9407 73.5204 71.0301C74.433 72.0617 73.3437 78.8208 72.2054 82.1611C72.0721 82.5631 71.8874 82.9462 71.6559 83.3007C72.1824 84.3633 73.0401 85.2254 74.0994 85.7568C74.7941 86.095 75.5667 86.2409 76.3368 86.1793C76.2485 85.9926 76.17 85.8059 76.0914 85.6095C75.3162 83.4972 75.6989 81.0706 77.2592 78.1626C78.2896 76.2468 79.1335 75.343 79.9186 75.343C80.127 75.3458 80.3302 75.4083 80.5042 75.5233C80.6781 75.6382 80.8155 75.8007 80.8999 75.9914C81.7537 77.5731 81.1354 82.7899 79.4476 85.3835C79.0523 85.9781 78.5027 86.4536 77.8578 86.7589C79.1728 88.488 81.6752 90.0108 85.7084 91.563C85.7689 91.5848 85.8244 91.6186 85.8716 91.6622C85.9188 91.7059 85.9568 91.7586 85.9834 91.8172C86.0099 91.8758 86.0244 91.9392 86.0261 92.0035C86.0277 92.0679 86.0165 92.1319 85.993 92.1918C85.9549 92.2941 85.8844 92.3812 85.7923 92.4397C85.7001 92.4982 85.5914 92.525 85.4827 92.516ZM79.9088 76.3353C79.9088 76.3353 79.3494 76.3353 78.113 78.644C76.69 81.2769 76.327 83.4481 77.0041 85.2754C77.0862 85.5017 77.1845 85.7217 77.2985 85.9337C77.83 85.7138 78.2819 85.3368 78.5938 84.853C79.9677 82.7506 80.6252 78.4279 80.1149 76.7381C80.0462 76.3942 79.9088 76.3353 79.9088 76.3353ZM72.8629 72.1992C72.3317 73.3177 71.8919 74.4775 71.5479 75.6672C70.7953 77.729 70.6656 79.967 71.175 82.1022L71.2633 81.8467C72.2938 78.7327 72.8432 75.4793 72.8923 72.1992H72.8629ZM66.4058 69.1045C66.239 69.2519 65.7581 69.8708 65.081 72.268C64.2802 74.9582 64.5328 77.8528 65.7876 80.3633C65.9889 79.924 66.1371 79.4623 66.2291 78.9878C67.2792 74.1641 66.9848 69.8021 66.4352 69.1045H66.4058Z" fill="#263238"/>
<path d="M122.793 144.015C121.224 144.03 119.679 143.626 118.318 142.846C118.206 142.778 118.124 142.67 118.091 142.543C118.058 142.416 118.076 142.282 118.141 142.168C118.173 142.113 118.216 142.064 118.268 142.026C118.319 141.987 118.377 141.959 118.44 141.944C118.502 141.928 118.566 141.925 118.63 141.935C118.693 141.945 118.754 141.967 118.808 142.001C122.312 144.054 126.836 142.62 127.768 141.117C127.835 141.022 127.883 140.916 127.908 140.803C127.934 140.689 127.936 140.572 127.915 140.458C126.124 140.561 124.35 140.056 122.881 139.024C120.379 137.462 120.182 136.99 120.202 136.617C120.207 136.51 120.24 136.406 120.299 136.316C120.358 136.226 120.439 136.154 120.536 136.106C121.517 135.615 125.943 137.649 127.787 138.867C128.009 139.014 128.213 139.185 128.396 139.378C129.121 139.213 129.774 138.821 130.26 138.258C130.534 137.936 130.732 137.556 130.839 137.148H130.643C129.073 137.305 127.503 136.627 125.825 135.075C124.667 134.014 124.225 133.277 124.372 132.697C124.417 132.534 124.507 132.388 124.632 132.274C124.758 132.161 124.913 132.086 125.079 132.059C126.433 131.715 129.789 133.149 131.153 134.652C131.458 134.979 131.674 135.378 131.781 135.812C133.067 135.212 134.421 133.847 136.021 131.617C136.058 131.563 136.105 131.518 136.16 131.483C136.215 131.449 136.276 131.425 136.34 131.414C136.404 131.403 136.469 131.405 136.532 131.42C136.595 131.434 136.655 131.461 136.708 131.499C136.813 131.575 136.884 131.69 136.906 131.819C136.928 131.947 136.899 132.079 136.825 132.186C134.971 134.78 133.42 136.254 131.87 136.853C131.789 137.579 131.492 138.264 131.016 138.818C130.451 139.476 129.708 139.957 128.877 140.203C128.923 140.438 128.923 140.679 128.876 140.913C128.829 141.148 128.736 141.371 128.602 141.569C127.778 142.974 125.403 144.015 122.793 144.015ZM121.919 137.197C122.253 137.442 122.724 137.767 123.401 138.179C124.456 138.892 125.669 139.337 126.934 139.476C125.354 138.528 123.672 137.763 121.919 137.197V137.197ZM125.344 133.021C125.626 133.553 126.017 134.018 126.492 134.387C127.945 135.733 129.269 136.352 130.545 136.195H130.859C130.789 135.89 130.64 135.608 130.427 135.379C129.053 133.827 126.031 132.864 125.344 133.021Z" fill="#263238"/>
<path d="M135.785 142.669L120.496 145.45L106.611 69.5859L77.1122 74.95L29.0273 160.422L34.1891 188.628L95.8653 177.418L100.085 200.486L129.584 195.102L125.364 172.034L140.653 169.254L135.785 142.669ZM58.4082 156.787L83.9226 112.017L91.0372 150.863L58.4082 156.787Z" fill="#407BFF"/>
<path d="M258.932 64.4378C258.467 59.6688 257.412 54.976 255.791 50.4676C254.124 46.1489 251.807 42.1105 248.922 38.4917C245.507 34.2816 241.265 30.8175 236.459 28.3137C231.226 25.4384 224.284 23.4375 215.636 22.311C197.677 19.9662 183.684 23.1559 173.655 31.8799C163.626 40.6039 157.018 57.3053 153.832 81.9841C152.56 91.2073 152.231 100.536 152.851 109.826C153.505 118.341 155.068 125.195 157.541 130.389C160.688 137.393 165.653 143.425 171.918 147.856C178.113 152.212 186.618 155.09 197.432 156.492C216.653 159.001 230.905 155.303 240.188 145.4C249.472 135.497 255.621 118.763 258.637 95.1979C259.978 84.9942 260.077 74.6653 258.932 64.4378V64.4378Z" fill="#407BFF"/>
<path d="M206.274 146.403C203.909 146.324 201.367 146.108 198.806 145.774C189.817 144.605 182.869 142.325 178.14 139.005C173.422 135.67 169.693 131.122 167.345 125.84L167.296 125.732C165.412 121.802 164.175 116.153 163.636 109.031C163.064 100.475 163.366 91.8833 164.538 83.3891C168.042 56.156 175.274 44.7892 180.72 40.0539C187.079 34.5326 195.666 32.0372 206.951 32.4302C209.267 32.5088 211.72 32.7151 214.242 33.0393C221.485 34.0217 227.225 35.5936 231.288 37.8139C234.799 39.6239 237.906 42.127 240.424 45.1724C242.627 47.9229 244.397 50.994 245.674 54.2796C246.978 57.9432 247.822 61.7548 248.186 65.6267C249.233 75.0088 249.137 84.4833 247.902 93.8423C245.184 115.004 239.924 129.878 232.279 138.052C226.607 144.104 218.099 146.894 206.264 146.442L206.274 146.403Z" fill="#263238"/>
<path d="M225.478 64.7229L225.606 60.9994L223.32 60.2528C223.222 58.9934 223.019 57.7446 222.711 56.5195L224.674 55.0852L223.359 51.5877L220.964 51.7842C220.401 50.6601 219.745 49.5855 219.002 48.5716L220.238 46.4987L217.687 43.7773L215.547 44.8777C214.59 44.0538 213.566 43.3111 212.486 42.6574L212.829 40.2799L209.434 38.7374L207.883 40.5648C206.683 40.1752 205.452 39.8861 204.203 39.7002L203.624 37.3719L199.895 37.2441L199.159 39.5234C197.902 39.6241 196.655 39.8279 195.43 40.1325L193.988 38.1676L190.494 39.4743L190.691 41.8714C189.568 42.4356 188.495 43.0929 187.482 43.8363L185.421 42.5886L182.693 45.1331L183.792 47.2846C182.967 48.2423 182.228 49.2713 181.584 50.3597L179.209 49.9962L177.659 53.3954L179.494 54.9476C179.095 56.1504 178.806 57.3868 178.63 58.6416L176.295 59.2311L176.167 62.9447L178.453 63.6913C178.549 64.9541 178.753 66.2064 179.062 67.4344L177.099 68.8589L178.414 72.3564L180.809 72.1599C181.366 73.2871 182.023 74.3622 182.771 75.3725L181.525 77.4454L184.076 80.1668L186.216 79.0763C187.173 79.897 188.197 80.6364 189.277 81.2867L188.924 83.6643L192.32 85.2067L193.88 83.3892C195.084 83.7765 196.318 84.0624 197.57 84.2439L198.149 86.5821L201.868 86.7098L202.604 84.4207C203.865 84.3248 205.116 84.121 206.343 83.8116L207.766 85.7765L211.259 84.4698L211.073 82.0825C212.191 81.5111 213.264 80.8542 214.282 80.1177L216.342 81.3555L219.07 78.811L217.981 76.6595C218.803 75.7051 219.539 74.6793 220.179 73.5943L222.554 73.9479L224.105 70.5487L222.279 68.9965C222.67 67.7955 222.955 66.5628 223.133 65.3123L225.478 64.7229ZM200.357 76.7774C197.45 76.6711 194.64 75.7051 192.281 74.0014C189.923 72.2977 188.121 69.9327 187.104 67.2048C186.087 64.4769 185.899 61.5085 186.566 58.6742C187.232 55.8398 188.722 53.2667 190.848 51.2795C192.974 49.2923 195.64 47.9801 198.51 47.5086C201.381 47.0371 204.326 47.4274 206.975 48.6302C209.623 49.833 211.857 51.7944 213.393 54.2668C214.929 56.7393 215.699 59.6119 215.606 62.5222C215.544 64.4621 215.1 66.3705 214.299 68.138C213.499 69.9055 212.357 71.4973 210.94 72.8218C209.523 74.1464 207.859 75.1777 206.042 75.8565C204.226 76.5353 202.294 76.8482 200.357 76.7774V76.7774Z" fill="#407BFF"/>
<path opacity="0.3" d="M240.964 133.081L241.239 130.566L239.727 129.957C239.725 129.101 239.653 128.246 239.512 127.402L240.876 126.528L240.179 124.101H238.55C238.228 123.312 237.837 122.553 237.382 121.832L238.305 120.496L236.734 118.531L235.233 119.16C234.625 118.557 233.968 118.005 233.27 117.509L233.633 115.918L231.425 114.699L230.268 115.868C229.479 115.543 228.665 115.284 227.834 115.092L227.559 113.491L225.057 113.206L224.438 114.719C223.586 114.723 222.736 114.802 221.897 114.955L221.023 113.56L218.6 114.277V115.908C217.811 116.234 217.053 116.628 216.333 117.087L214.998 116.104L213.035 117.676L213.664 119.179C213.065 119.789 212.517 120.446 212.025 121.144L210.435 120.79L209.228 123.001L210.386 124.15C210.057 124.942 209.798 125.76 209.611 126.597L208.001 126.862L207.736 129.367L209.238 129.996C209.238 130.846 209.314 131.694 209.463 132.531L208.08 133.405L208.786 135.832H210.425C210.753 136.617 211.147 137.373 211.603 138.091L210.621 139.427L212.192 141.392L213.713 140.754C214.316 141.358 214.973 141.907 215.675 142.394L215.332 144.015L217.54 145.224L218.688 144.074C219.478 144.391 220.291 144.644 221.122 144.831L221.406 146.442L223.909 146.717L224.517 145.214C225.385 145.213 226.251 145.14 227.108 144.998L227.981 146.383L230.395 145.676V144.045C231.184 143.713 231.945 143.319 232.672 142.866L233.987 143.848L235.949 142.267L235.312 140.763C235.916 140.154 236.471 139.497 236.97 138.799L238.55 139.152L239.767 136.942L238.609 135.802C238.924 135.011 239.177 134.196 239.364 133.366L240.964 133.081ZM228.334 132.098C227.919 132.859 227.288 133.479 226.52 133.881C225.753 134.282 224.884 134.446 224.023 134.353C223.162 134.26 222.348 133.913 221.684 133.357C221.02 132.8 220.536 132.059 220.293 131.227C220.05 130.395 220.059 129.51 220.319 128.683C220.578 127.856 221.077 127.125 221.752 126.582C222.427 126.039 223.247 125.708 224.11 125.632C224.972 125.556 225.838 125.738 226.597 126.155C227.613 126.715 228.365 127.654 228.691 128.768C229.016 129.881 228.888 131.079 228.334 132.098V132.098Z" fill="#407BFF"/>
<path d="M254.869 90.6197L251.925 88.5959C251.635 87.5438 251.241 86.5235 250.747 85.5503L251.493 82.603L247.254 78.0543L244.31 78.6045C243.376 78.0479 242.39 77.5839 241.366 77.2193V77.2193L239.55 74.1541L233.339 73.9478L231.317 76.8951C230.265 77.1807 229.245 77.5758 228.275 78.074L225.331 77.3175L220.787 81.5715L221.337 84.5188C220.773 85.4495 220.309 86.4375 219.953 87.4661L216.901 89.2836L216.686 95.5024L219.63 97.5262C219.915 98.5861 220.309 99.6133 220.807 100.591V100.591L220.061 103.539L224.301 108.087L227.245 107.547C228.179 108.103 229.165 108.567 230.189 108.932V108.932L231.994 111.988L238.216 112.204L240.227 109.257C241.288 108.968 242.318 108.573 243.299 108.078V108.078L246.243 108.824L250.787 104.58L250.247 101.633C250.804 100.699 251.268 99.7114 251.63 98.6855V98.6855L254.682 96.868L254.869 90.6197ZM235.507 100.071C234.126 100.023 232.79 99.5668 231.668 98.7592C230.546 97.9515 229.688 96.8288 229.204 95.5331C228.719 94.2375 228.629 92.827 228.945 91.4802C229.261 90.1333 229.969 88.9105 230.979 87.9664C231.99 87.0224 233.257 86.3995 234.621 86.1764C235.985 85.9534 237.384 86.1403 238.642 86.7135C239.9 87.2867 240.959 88.2205 241.687 89.3967C242.415 90.5729 242.778 91.9387 242.73 93.3214C242.663 95.1743 241.866 96.9252 240.512 98.1904C239.158 99.4556 237.358 100.132 235.507 100.071V100.071Z" fill="white"/>
<path d="M276.174 40.9773L276.684 39.7493C277.031 39.5535 277.359 39.3266 277.665 39.0714H278.804L280.138 37.1065L279.706 36.0553C279.872 35.7052 280.003 35.34 280.099 34.9648V34.9648L281.08 34.061L280.668 31.7522L279.432 31.2414C279.238 30.893 279.011 30.564 278.755 30.2589V29.1193L276.841 27.7832L275.781 28.2253C275.394 28.0887 274.992 27.9964 274.584 27.9502L273.681 26.9678L271.385 27.3804L270.865 28.6183C270.501 28.8073 270.156 29.031 269.834 29.2863V29.2863H268.706L267.371 31.2512L267.803 32.3024C267.671 32.6916 267.579 33.0932 267.528 33.501L266.547 34.4146L266.959 36.7135L268.195 37.2244C268.383 37.5745 268.606 37.9038 268.863 38.2068V38.2068V39.3366L270.825 40.6728L271.875 40.2405C272.268 40.3682 272.672 40.4571 273.082 40.5057V40.5057L273.985 41.4882L276.174 40.9773ZM271.267 34.6111C271.174 34.0985 271.235 33.5699 271.443 33.0921C271.65 32.6143 271.995 32.2089 272.432 31.9271C272.87 31.6453 273.381 31.4998 273.902 31.5091C274.422 31.5183 274.928 31.6819 275.355 31.9791C275.782 32.2762 276.112 32.6937 276.303 33.1785C276.493 33.6634 276.535 34.1939 276.424 34.7029C276.313 35.2118 276.054 35.6764 275.679 36.0378C275.305 36.3993 274.831 36.6413 274.319 36.7332C273.634 36.8536 272.928 36.6982 272.357 36.3008C271.785 35.9034 271.394 35.2961 271.267 34.6111V34.6111Z" fill="#407BFF"/>
<path d="M249.295 34.4639L248.54 33.8253C250.159 31.8146 252.16 30.145 254.427 28.9131L254.889 29.7776C252.732 30.953 250.831 32.546 249.295 34.4639V34.4639Z" fill="#407BFF"/>
<path d="M257.126 28.8735L256.743 27.9696C260.367 26.3931 264.33 25.7578 268.264 26.1227L268.166 27.1051C264.396 26.7493 260.597 27.3578 257.126 28.8735V28.8735Z" fill="#407BFF"/>
<path d="M255.271 35.6722L254.467 35.122C256.831 31.9258 260.272 29.6955 264.152 28.8442L264.339 29.8267C260.712 30.6195 257.493 32.695 255.271 35.6722V35.6722Z" fill="#407BFF"/>
<path d="M190.151 130.261C190.017 130.257 189.89 130.201 189.798 130.104L187.747 127.982C186.701 127.887 185.666 127.696 184.656 127.412L181.447 128.827C181.376 128.865 181.297 128.886 181.216 128.886C181.135 128.886 181.056 128.865 180.985 128.827L175.608 125.26C175.538 125.215 175.482 125.152 175.444 125.078C175.406 125.004 175.388 124.921 175.392 124.838V121.34C174.736 120.519 174.157 119.637 173.665 118.708L170.907 117.646C170.83 117.617 170.762 117.567 170.708 117.504C170.655 117.44 170.619 117.364 170.603 117.283L169.327 110.956C169.31 110.875 169.314 110.791 169.338 110.713C169.362 110.634 169.406 110.562 169.465 110.504L171.584 108.451C171.686 107.405 171.876 106.37 172.153 105.356L170.74 102.144C170.702 102.073 170.681 101.993 170.681 101.913C170.681 101.832 170.702 101.753 170.74 101.682L174.303 96.2981C174.347 96.2273 174.409 96.1697 174.484 96.1317C174.558 96.0936 174.641 96.0764 174.725 96.082L178.218 96.1311C179.037 95.4708 179.917 94.8917 180.848 94.402L181.918 91.6414C181.946 91.5648 181.993 91.4967 182.055 91.4434C182.117 91.3901 182.191 91.3534 182.271 91.3368L188.591 90.0597C188.671 90.0418 188.755 90.0451 188.834 90.0692C188.913 90.0933 188.985 90.1374 189.042 90.1972L191.093 92.3193C192.142 92.415 193.18 92.6058 194.194 92.8891L197.393 91.4744C197.466 91.4357 197.547 91.4154 197.629 91.4154C197.711 91.4154 197.792 91.4357 197.864 91.4744L203.232 95.0406C203.3 95.0884 203.356 95.1515 203.395 95.2249C203.434 95.2983 203.456 95.3799 203.458 95.4631L203.399 98.9605C204.058 99.7822 204.64 100.664 205.136 101.593L207.883 102.664C207.96 102.693 208.028 102.74 208.081 102.802C208.134 102.864 208.171 102.938 208.188 103.018L209.473 109.345C209.488 109.426 209.484 109.509 209.46 109.588C209.436 109.666 209.393 109.738 209.336 109.797L207.206 111.86C207.108 112.903 206.918 113.935 206.637 114.945L208.05 118.157C208.089 118.23 208.109 118.311 208.109 118.393C208.109 118.475 208.089 118.556 208.05 118.629L204.537 123.964C204.491 124.03 204.429 124.085 204.358 124.122C204.286 124.16 204.206 124.18 204.125 124.18L200.622 124.131C199.8 124.782 198.923 125.361 198.002 125.86L196.932 128.62C196.903 128.698 196.854 128.767 196.79 128.82C196.727 128.874 196.65 128.91 196.569 128.925L190.249 130.261H190.151ZM184.626 126.331C184.671 126.322 184.718 126.322 184.764 126.331C185.823 126.64 186.912 126.841 188.012 126.93C188.13 126.944 188.24 126.996 188.326 127.078L190.288 129.141L196.078 127.972L197.118 125.28C197.167 125.171 197.249 125.081 197.354 125.025C198.334 124.517 199.258 123.908 200.111 123.207C200.202 123.131 200.317 123.092 200.435 123.099L203.84 123.148L207.098 118.236L205.725 115.112C205.686 115.004 205.686 114.886 205.725 114.778C206.028 113.716 206.229 112.627 206.323 111.526C206.333 111.407 206.385 111.295 206.47 111.212L208.531 109.247L207.363 103.45L204.684 102.409C204.569 102.367 204.475 102.283 204.419 102.173C203.91 101.193 203.302 100.268 202.604 99.4125C202.534 99.3227 202.496 99.212 202.496 99.0981V95.6792L197.589 92.4175L194.479 93.7929C194.368 93.8327 194.246 93.8327 194.135 93.7929C193.072 93.4855 191.98 93.2847 190.877 93.1936C190.759 93.1797 190.649 93.128 190.563 93.0463L188.6 90.9832L182.811 92.1621L181.78 94.8933C181.739 95.0059 181.659 95.1 181.555 95.1585C180.571 95.6647 179.643 96.2739 178.787 96.976C178.745 97.0144 178.695 97.0437 178.641 97.0623C178.587 97.0808 178.53 97.0883 178.473 97.0841L175.068 97.035L171.8 101.947L173.174 105.071C173.205 105.137 173.222 105.209 173.222 105.283C173.222 105.356 173.205 105.428 173.174 105.494C172.883 106.531 172.693 107.593 172.605 108.667C172.596 108.786 172.543 108.898 172.458 108.981L170.397 110.946L171.575 116.743L174.244 117.784C174.363 117.834 174.46 117.924 174.518 118.039C175.024 119.013 175.63 119.931 176.324 120.78C176.397 120.869 176.435 120.98 176.432 121.095V124.514L181.339 127.775L184.459 126.4C184.51 126.367 184.567 126.344 184.626 126.331V126.331ZM189.444 123.148C187.082 123.146 184.765 122.503 182.739 121.288C180.713 120.073 179.053 118.331 177.937 116.247C176.82 114.163 176.289 111.815 176.399 109.453C176.509 107.09 177.256 104.802 178.562 102.831V102.831C179.81 100.94 181.527 99.4064 183.545 98.379C185.563 97.3516 187.813 96.8662 190.075 96.9702C192.336 97.0742 194.532 97.764 196.447 98.9722C198.363 100.18 199.932 101.866 201.002 103.863C202.072 105.861 202.606 108.102 202.552 110.368C202.497 112.634 201.856 114.847 200.691 116.79C199.526 118.734 197.878 120.341 195.906 121.456C193.935 122.57 191.708 123.153 189.444 123.148ZM179.386 103.372C178.065 105.367 177.365 107.709 177.373 110.103C177.382 112.497 178.1 114.834 179.435 116.819C180.771 118.805 182.664 120.349 184.877 121.257C187.089 122.165 189.52 122.396 191.864 121.921C194.207 121.446 196.357 120.286 198.042 118.587C199.727 116.889 200.87 114.728 201.329 112.379C201.787 110.03 201.54 107.597 200.617 105.389C199.695 103.181 198.139 101.296 196.147 99.9724C194.826 99.0871 193.342 98.4725 191.782 98.1641C190.223 97.8557 188.617 97.8596 187.059 98.1756C185.501 98.4917 184.02 99.1135 182.703 100.005C181.386 100.897 180.259 102.041 179.386 103.372V103.372Z" fill="white"/>
<path d="M377.083 151.531L361.676 149.448L371.862 73.0044L342.148 68.9961L270.07 135.428L266.282 163.85L328.39 172.24L325.289 195.495L355.003 199.503L358.104 176.258L373.511 178.341L377.083 151.531ZM299.146 140.999L337.182 106.289L331.962 145.43L299.146 140.999Z" fill="#407BFF"/>
<path d="M345.975 198.776H345.848C345.72 198.752 345.608 198.679 345.534 198.572C345.46 198.466 345.432 198.334 345.455 198.206L368.418 72.5135C368.444 72.3873 368.518 72.276 368.624 72.2028C368.73 72.1296 368.86 72.1002 368.987 72.1206C369.114 72.1444 369.227 72.2177 369.301 72.3245C369.374 72.4312 369.403 72.5627 369.38 72.6904L346.456 198.373C346.437 198.487 346.378 198.59 346.29 198.664C346.202 198.738 346.09 198.778 345.975 198.776Z" fill="#263238"/>
<path d="M366.289 74.6256C366.281 74.8393 366.189 75.0411 366.032 75.1867C365.876 75.3322 365.668 75.4096 365.455 75.4018C365.241 75.394 365.04 75.3016 364.894 75.145C364.749 74.9884 364.671 74.7804 364.679 74.5667C364.687 74.353 364.779 74.1512 364.936 74.0057C365.092 73.8601 365.3 73.7828 365.513 73.7906C365.727 73.7984 365.928 73.8908 366.074 74.0474C366.219 74.204 366.296 74.412 366.289 74.6256Z" fill="#263238"/>
<path d="M363.021 91.6217C363.015 91.7809 362.962 91.9347 362.869 92.0638C362.776 92.1929 362.646 92.2914 362.497 92.3469C362.348 92.4023 362.186 92.4123 362.031 92.3755C361.876 92.3387 361.736 92.2568 361.627 92.1402C361.519 92.0235 361.448 91.8773 361.422 91.72C361.397 91.5628 361.419 91.4015 361.485 91.2567C361.551 91.1118 361.659 90.9899 361.794 90.9062C361.93 90.8225 362.087 90.7809 362.246 90.7867C362.351 90.7905 362.455 90.8151 362.551 90.8591C362.648 90.9031 362.734 90.9657 362.806 91.0433C362.878 91.1209 362.934 91.2119 362.971 91.3111C363.008 91.4104 363.025 91.5159 363.021 91.6217Z" fill="#263238"/>
<path d="M359.753 108.648C359.749 108.753 359.725 108.857 359.681 108.954C359.637 109.05 359.574 109.137 359.497 109.209C359.419 109.281 359.328 109.337 359.229 109.374C359.13 109.411 359.025 109.428 358.919 109.424C358.814 109.421 358.71 109.398 358.614 109.355C358.518 109.312 358.431 109.25 358.359 109.173C358.287 109.097 358.231 109.006 358.194 108.908C358.157 108.809 358.14 108.704 358.144 108.599C358.146 108.492 358.17 108.387 358.213 108.289C358.257 108.192 358.319 108.104 358.397 108.031C358.474 107.958 358.566 107.901 358.665 107.863C358.765 107.826 358.871 107.809 358.978 107.813C359.19 107.823 359.39 107.916 359.535 108.072C359.68 108.228 359.758 108.435 359.753 108.648Z" fill="#263238"/>
<path d="M353.315 126.331C353.294 126.529 353.2 126.711 353.052 126.843C352.905 126.975 352.714 127.048 352.516 127.048C352.318 127.048 352.126 126.975 351.979 126.843C351.831 126.711 351.738 126.529 351.716 126.331C351.703 126.219 351.715 126.105 351.749 125.997C351.784 125.889 351.841 125.79 351.916 125.705C351.992 125.621 352.084 125.553 352.187 125.507C352.291 125.461 352.402 125.437 352.516 125.437C352.629 125.437 352.741 125.461 352.844 125.507C352.947 125.553 353.04 125.621 353.115 125.705C353.191 125.79 353.247 125.889 353.282 125.997C353.316 126.105 353.328 126.219 353.315 126.331V126.331Z" fill="#263238"/>
<path d="M353.207 142.61C353.205 142.717 353.181 142.821 353.138 142.918C353.094 143.015 353.032 143.102 352.954 143.175C352.876 143.247 352.785 143.303 352.685 143.339C352.585 143.376 352.479 143.392 352.373 143.387C352.214 143.381 352.061 143.328 351.932 143.234C351.803 143.141 351.704 143.011 351.649 142.862C351.594 142.713 351.584 142.55 351.62 142.395C351.657 142.24 351.739 142.1 351.856 141.991C351.972 141.883 352.118 141.812 352.275 141.786C352.432 141.761 352.593 141.783 352.738 141.849C352.883 141.915 353.005 142.023 353.088 142.158C353.172 142.294 353.213 142.451 353.207 142.61Z" fill="#263238"/>
<path d="M349.94 159.607C349.936 159.766 349.884 159.921 349.792 160.051C349.7 160.182 349.571 160.282 349.422 160.339C349.273 160.396 349.111 160.407 348.955 160.372C348.8 160.336 348.658 160.255 348.549 160.138C348.44 160.022 348.367 159.876 348.341 159.718C348.315 159.561 348.337 159.399 348.403 159.253C348.469 159.108 348.576 158.985 348.712 158.901C348.847 158.817 349.005 158.775 349.164 158.781C349.376 158.789 349.576 158.88 349.721 159.034C349.867 159.189 349.945 159.395 349.94 159.607V159.607Z" fill="#263238"/>
<path d="M346.672 176.603C346.664 176.817 346.572 177.02 346.416 177.167C346.26 177.314 346.052 177.394 345.838 177.388C345.732 177.385 345.628 177.36 345.532 177.316C345.436 177.272 345.349 177.209 345.277 177.132C345.205 177.054 345.149 176.963 345.112 176.864C345.076 176.765 345.059 176.659 345.063 176.553C345.066 176.448 345.09 176.343 345.133 176.247C345.177 176.15 345.239 176.063 345.316 175.991C345.393 175.918 345.483 175.862 345.582 175.824C345.681 175.787 345.786 175.769 345.892 175.772C345.997 175.776 346.101 175.8 346.198 175.843C346.294 175.887 346.381 175.949 346.454 176.026C346.526 176.103 346.583 176.193 346.62 176.292C346.658 176.391 346.675 176.497 346.672 176.603V176.603Z" fill="#263238"/>
<path d="M343.394 193.609C343.389 193.768 343.336 193.922 343.242 194.051C343.149 194.18 343.02 194.278 342.871 194.334C342.722 194.389 342.559 194.399 342.404 194.362C342.25 194.326 342.109 194.244 342.001 194.127C341.893 194.01 341.821 193.864 341.796 193.707C341.771 193.55 341.792 193.388 341.859 193.243C341.925 193.099 342.032 192.977 342.168 192.893C342.303 192.809 342.46 192.768 342.619 192.773C342.725 192.776 342.83 192.8 342.927 192.843C343.023 192.887 343.111 192.949 343.183 193.027C343.255 193.105 343.311 193.197 343.347 193.296C343.384 193.396 343.4 193.502 343.394 193.609V193.609Z" fill="#263238"/>
<path d="M352.511 126.773C352.4 126.773 352.293 126.735 352.207 126.666C352.121 126.596 352.062 126.499 352.04 126.39C352.025 126.327 352.023 126.261 352.034 126.198C352.045 126.134 352.069 126.072 352.103 126.018C352.138 125.963 352.183 125.915 352.236 125.878C352.289 125.841 352.349 125.815 352.413 125.801L354.846 125.28C354.91 125.266 354.976 125.264 355.041 125.276C355.105 125.287 355.166 125.312 355.221 125.347C355.276 125.383 355.323 125.429 355.36 125.484C355.397 125.538 355.422 125.599 355.435 125.663C355.448 125.726 355.448 125.792 355.436 125.855C355.424 125.918 355.399 125.979 355.364 126.032C355.328 126.086 355.282 126.132 355.229 126.169C355.176 126.205 355.116 126.23 355.052 126.243L352.619 126.764L352.511 126.773Z" fill="#263238"/>
<path d="M360.646 117.725C359.488 120.731 358.505 123.801 357.702 126.921C356.966 130.389 356.927 138.15 356.927 138.15" fill="#263238"/>
<path d="M356.927 138.641C356.796 138.636 356.673 138.582 356.582 138.489C356.491 138.395 356.438 138.271 356.436 138.14C356.436 137.826 356.495 130.281 357.231 126.823C358.03 123.676 359.013 120.579 360.175 117.549C360.195 117.484 360.227 117.424 360.271 117.373C360.315 117.321 360.369 117.279 360.429 117.25C360.49 117.22 360.556 117.203 360.624 117.201C360.691 117.198 360.758 117.209 360.821 117.233C360.884 117.258 360.942 117.295 360.99 117.342C361.038 117.39 361.075 117.447 361.1 117.51C361.125 117.572 361.137 117.64 361.135 117.707C361.133 117.775 361.116 117.841 361.087 117.902C359.931 120.885 358.948 123.932 358.144 127.029C357.427 130.409 357.378 138.072 357.368 138.15C357.369 138.272 357.324 138.39 357.242 138.481C357.161 138.572 357.048 138.629 356.927 138.641Z" fill="#263238"/>
<path d="M177.501 223.436C178.866 201.429 176.363 161.414 217.687 166.72C261.974 172.388 249.305 224.241 249.305 224.241L177.501 223.436Z" fill="#263238"/>
<path d="M206.028 210.212C215.99 210.212 224.065 202.128 224.065 192.155C224.065 182.182 215.99 174.098 206.028 174.098C196.067 174.098 187.992 182.182 187.992 192.155C187.992 202.128 196.067 210.212 206.028 210.212Z" fill="white"/>
<path d="M208.394 174.127C199.846 172.673 190.73 178.97 189.817 185.356L223.683 188.48C222.486 181.2 215.165 175.286 208.394 174.127Z" fill="#263238"/>
<path d="M219.826 191.703C219.581 196.428 217.01 200.132 214.085 199.975C211.161 199.818 208.983 195.878 209.179 191.133C209.375 186.388 211.995 182.704 214.92 182.861C217.844 183.018 220.062 186.987 219.826 191.703Z" fill="#263238"/>
<path d="M206.019 211.194C202.258 211.194 198.581 210.078 195.453 207.986C192.326 205.894 189.888 202.92 188.449 199.441C187.009 195.962 186.633 192.134 187.366 188.44C188.1 184.747 189.912 181.355 192.571 178.692C195.231 176.029 198.62 174.216 202.309 173.481C205.998 172.746 209.822 173.123 213.297 174.565C216.772 176.006 219.742 178.446 221.832 181.577C223.922 184.708 225.037 188.389 225.037 192.155C225.032 197.203 223.027 202.043 219.461 205.612C215.896 209.182 211.061 211.189 206.019 211.194V211.194ZM206.019 175.08C202.646 175.08 199.348 176.082 196.544 177.958C193.739 179.834 191.553 182.501 190.262 185.621C188.971 188.741 188.633 192.174 189.291 195.486C189.949 198.798 191.574 201.841 193.959 204.229C196.344 206.616 199.383 208.243 202.692 208.902C206 209.56 209.429 209.222 212.546 207.93C215.662 206.638 218.326 204.449 220.2 201.641C222.074 198.833 223.074 195.532 223.074 192.155C223.069 187.628 221.271 183.288 218.073 180.087C214.876 176.886 210.541 175.085 206.019 175.08V175.08Z" fill="#407BFF"/>
<path opacity="0.3" d="M244.271 222.886H244.153C244.09 222.872 244.03 222.845 243.977 222.808C243.925 222.771 243.88 222.723 243.846 222.668C243.812 222.613 243.79 222.552 243.78 222.488C243.771 222.424 243.774 222.359 243.79 222.296C243.79 222.168 246.95 208.847 243.701 195.377C243.67 195.247 243.692 195.11 243.762 194.996C243.832 194.881 243.944 194.8 244.074 194.768C244.204 194.737 244.342 194.759 244.456 194.829C244.57 194.899 244.652 195.011 244.683 195.142C247.99 208.896 244.801 222.394 244.771 222.522C244.742 222.631 244.676 222.727 244.585 222.793C244.494 222.859 244.383 222.892 244.271 222.886V222.886Z" fill="white"/>
<path opacity="0.3" d="M241.533 187.989C241.439 187.988 241.347 187.961 241.267 187.911C241.187 187.86 241.123 187.789 241.082 187.704C239.862 185.005 238.299 182.476 236.43 180.179C236.349 180.078 236.31 179.95 236.323 179.821C236.336 179.692 236.399 179.574 236.499 179.491C236.549 179.449 236.607 179.418 236.669 179.399C236.731 179.38 236.797 179.373 236.862 179.379C236.926 179.386 236.989 179.405 237.047 179.436C237.104 179.467 237.155 179.509 237.196 179.56C239.11 181.924 240.716 184.522 241.975 187.292C242.003 187.35 242.019 187.413 242.022 187.477C242.025 187.541 242.016 187.605 241.994 187.666C241.972 187.726 241.938 187.782 241.894 187.829C241.85 187.876 241.798 187.914 241.739 187.94C241.674 187.97 241.604 187.987 241.533 187.989V187.989Z" fill="white"/>
<path d="M85.5322 326.67H85.1691C83.8678 326.634 82.6342 326.081 81.7398 325.134C80.8454 324.187 80.3634 322.923 80.3999 321.62C80.4363 320.318 80.9882 319.083 81.9341 318.187C82.8801 317.292 84.1426 316.809 85.4439 316.846H85.5322C88.3682 316.846 95.1884 313.397 109.457 290.88C109.836 290.282 110.339 289.773 110.933 289.388C111.526 289.003 112.196 288.751 112.896 288.649C113.596 288.547 114.31 288.598 114.988 288.799C115.666 288.999 116.294 289.343 116.827 289.809C128.032 299.453 140.253 307.846 153.273 314.842C153.875 315.116 154.416 315.509 154.863 315.999C155.31 316.488 155.653 317.062 155.872 317.688C156.091 318.313 156.181 318.976 156.137 319.637C156.094 320.299 155.917 320.944 155.617 321.535C155.318 322.126 154.902 322.65 154.395 323.076C153.888 323.502 153.3 323.821 152.666 324.013C152.033 324.206 151.367 324.268 150.709 324.196C150.051 324.124 149.414 323.92 148.837 323.595C136.736 317.158 125.298 309.543 114.687 300.861C102.725 318.889 93.8538 326.67 85.5322 326.67Z" fill="#263238"/>
<path d="M115.894 288.925H115.472C114.701 288.813 114.006 288.4 113.538 287.775C113.071 287.151 112.87 286.367 112.98 285.594C113.676 280.682 112.813 262.38 106.621 248.134C106.346 247.505 106.3 246.799 106.49 246.139C106.679 245.479 107.094 244.906 107.661 244.519C121.105 235.353 149.74 234.252 150.957 234.213C151.343 234.2 151.729 234.264 152.091 234.4C152.453 234.536 152.785 234.742 153.067 235.007C153.35 235.271 153.577 235.589 153.737 235.942C153.897 236.294 153.986 236.675 153.999 237.062C154.012 237.449 153.948 237.835 153.812 238.197C153.676 238.56 153.47 238.892 153.206 239.175C152.942 239.458 152.624 239.686 152.272 239.846C151.92 240.006 151.54 240.095 151.153 240.108C150.888 240.108 125.855 241.09 112.999 248.164C118.475 262.35 119.721 280.024 118.809 286.42C118.703 287.117 118.351 287.754 117.816 288.214C117.281 288.674 116.599 288.926 115.894 288.925Z" fill="#263238"/>
<path d="M120.84 285.113C118.877 280.486 110.046 281.006 104.874 284.975C102.107 287.088 98.358 293.464 98.0047 295.782C97.8869 296.333 97.9045 296.904 98.0561 297.447C98.2076 297.989 98.4886 298.487 98.8747 298.897C99.2609 299.307 99.7407 299.616 100.273 299.799C100.805 299.982 101.374 300.033 101.93 299.948C105.316 299.653 109.957 294.731 109.957 294.731C106.866 297.767 110.86 299.908 116.827 295.517C120.084 293.071 123.028 290.29 120.84 285.113Z" fill="#407BFF"/>
<path d="M289.627 224.733C289.582 224.743 289.535 224.743 289.49 224.733C289.427 224.716 289.369 224.686 289.318 224.646C289.267 224.606 289.225 224.556 289.194 224.499C289.162 224.442 289.143 224.38 289.137 224.315C289.13 224.251 289.137 224.185 289.156 224.124C290.462 219.565 291.884 216.785 293.759 215.282C293.465 214.225 293.52 213.102 293.916 212.079C294.37 210.883 295.178 209.855 296.232 209.132C295.946 208.822 295.743 208.446 295.642 208.037C295.541 207.628 295.544 207.2 295.653 206.793C296.008 205.563 296.743 204.476 297.753 203.689C297.389 203.281 297.189 202.752 297.193 202.205C297.193 199.258 302.601 194.817 308.734 193.973C308.864 193.954 308.996 193.989 309.101 194.068C309.206 194.147 309.275 194.265 309.293 194.395C309.311 194.525 309.277 194.657 309.198 194.762C309.119 194.868 309.001 194.937 308.871 194.955C303.042 195.751 298.155 199.975 298.175 202.205C298.173 202.538 298.299 202.858 298.528 203.099C299.848 202.203 301.333 201.579 302.897 201.264C304.46 200.948 306.071 200.948 307.635 201.262C310.647 201.842 311.874 202.48 311.737 203.394C311.462 205.113 305.054 205.477 300.756 204.966C299.986 204.896 299.236 204.679 298.548 204.327C297.622 204.987 296.934 205.927 296.585 207.009C296.501 207.296 296.501 207.6 296.587 207.886C296.672 208.172 296.839 208.428 297.066 208.621C298.891 207.638 301.452 207.285 304.838 208.031C309.283 209.014 309.45 209.554 309.558 209.878C309.593 209.993 309.595 210.115 309.566 210.231C309.537 210.346 309.476 210.452 309.391 210.536C308.459 211.519 301.639 211.057 298.214 210.212C297.8 210.118 297.401 209.969 297.027 209.77C296.013 210.387 295.233 211.323 294.809 212.433C294.525 213.15 294.447 213.933 294.583 214.692C294.758 214.588 294.938 214.492 295.123 214.407C297.154 213.425 299.607 213.602 302.64 214.898C304.602 215.753 305.584 216.519 305.682 217.296C305.686 217.495 305.636 217.691 305.538 217.864C305.439 218.037 305.296 218.18 305.123 218.278C303.621 219.26 298.381 219.123 295.653 217.669C295.025 217.328 294.503 216.822 294.142 216.205C292.542 217.679 291.247 220.302 290.069 224.418C290.033 224.508 289.973 224.585 289.894 224.64C289.816 224.696 289.723 224.728 289.627 224.733V224.733ZM294.946 215.566C295.219 216.075 295.636 216.492 296.143 216.765C298.361 217.944 302.718 218.209 304.347 217.551C304.681 217.413 304.73 217.305 304.73 217.305C304.73 217.305 304.681 216.755 302.277 215.724C299.529 214.545 297.37 214.378 295.574 215.213C295.358 215.317 295.148 215.435 294.946 215.566V215.566ZM298.224 209.112L298.469 209.181C301.665 209.918 304.954 210.166 308.224 209.917C307.064 209.487 305.868 209.158 304.651 208.935C302.538 208.362 300.303 208.423 298.224 209.112V209.112ZM299.46 203.591C299.913 203.753 300.385 203.859 300.864 203.905C305.77 204.485 310.078 203.807 310.677 203.188C310.51 203.04 309.852 202.618 307.419 202.156C304.68 201.609 301.836 202.122 299.46 203.591V203.591Z" fill="#263238"/>
<path d="M161.879 325.029C162.526 324.823 162.311 324.194 161.584 324.194H148.297C122.999 321.512 105.325 325.108 116.463 325.953C127.601 326.797 115.678 326.621 107.543 329.705C99.4078 332.79 168.042 333.566 174.273 329.705C180.004 326.149 152.909 327.908 161.879 325.029Z" fill="#263238"/>
<path d="M257.008 328.949L141.409 325.118L136.61 212.894L273.122 215.949L257.008 328.949Z" fill="#407BFF"/>
<path d="M177.501 326.798C177.378 326.798 177.259 326.752 177.168 326.668C177.077 326.584 177.021 326.469 177.011 326.346L167.747 213.641C167.739 213.511 167.781 213.383 167.866 213.284C167.95 213.185 168.069 213.123 168.199 213.11C168.328 213.105 168.454 213.148 168.552 213.232C168.651 213.316 168.714 213.434 168.728 213.562L178.041 326.267C178.047 326.332 178.039 326.397 178.019 326.459C177.999 326.52 177.968 326.577 177.926 326.627C177.884 326.676 177.832 326.716 177.775 326.746C177.717 326.775 177.654 326.793 177.59 326.798H177.501Z" fill="#263238"/>
<path d="M257.008 328.949L288.077 324.214L297.871 219.869L273.122 215.949L257.008 328.949Z" fill="#407BFF"/>
<path opacity="0.2" d="M257.008 328.949L288.077 324.214L297.871 219.869L273.122 215.949L257.008 328.949Z" fill="black"/>
<path d="M151.281 303.485L148.435 236.807C148.365 235.159 148.633 233.515 149.222 231.976C149.812 230.437 150.711 229.035 151.864 227.857C153.016 226.679 154.398 225.751 155.923 225.129C157.448 224.507 159.084 224.205 160.731 224.241L247.146 226.206C248.848 226.245 250.522 226.644 252.058 227.377C253.594 228.111 254.958 229.162 256.058 230.462C257.159 231.762 257.972 233.28 258.444 234.917C258.915 236.555 259.035 238.273 258.794 239.96L249.217 307.1C248.802 310.04 247.318 312.724 245.049 314.637C242.78 316.55 239.886 317.557 236.921 317.465L162.939 315.008C159.902 314.915 157.012 313.675 154.85 311.538C152.688 309.4 151.413 306.524 151.281 303.485V303.485Z" fill="#263238"/>
<path d="M160.623 244.705L173.988 245.128L173.88 248.576L165.51 248.311L165.431 250.885L173.193 251.13L173.085 254.431L165.323 254.176L165.225 257.369L173.831 257.644L173.713 261.298L160.103 260.866L160.623 244.705Z" fill="white"/>
<path d="M176.471 261.387L176.981 245.226L185.303 245.491C186.496 245.485 187.684 245.657 188.826 246.002C189.636 246.274 190.329 246.815 190.789 247.535C191.13 248.059 191.359 248.649 191.463 249.266C191.567 249.883 191.542 250.515 191.391 251.123C191.24 251.73 190.966 252.3 190.585 252.796C190.205 253.293 189.726 253.706 189.179 254.009C188.621 254.297 188.022 254.496 187.403 254.599C187.859 254.746 188.292 254.957 188.689 255.227C188.975 255.493 189.232 255.79 189.454 256.111C189.707 256.417 189.93 256.746 190.121 257.094L192.388 261.859L186.755 261.672L184.243 256.652C184.044 256.172 183.75 255.738 183.38 255.375C183.028 255.12 182.607 254.976 182.173 254.962H181.731L181.525 261.515L176.471 261.387ZM181.79 251.936L183.89 252.005C184.336 251.978 184.779 251.915 185.215 251.818C185.543 251.768 185.841 251.596 186.049 251.337C186.261 251.075 186.382 250.75 186.392 250.413C186.411 250.189 186.379 249.963 186.299 249.752C186.22 249.541 186.094 249.351 185.931 249.195C185.384 248.841 184.737 248.672 184.086 248.714L181.888 248.645L181.79 251.936Z" fill="white"/>
<path d="M194.017 261.908L194.527 245.747L202.839 246.012C204.032 246.005 205.22 246.177 206.362 246.523C207.174 246.791 207.867 247.333 208.325 248.055C208.823 248.843 209.057 249.768 208.992 250.698C208.995 251.482 208.786 252.252 208.387 252.927C207.987 253.601 207.413 254.155 206.725 254.53C206.168 254.816 205.568 255.012 204.949 255.109C205.401 255.263 205.831 255.478 206.225 255.748C206.518 256.006 206.778 256.3 207 256.622C207.251 256.929 207.474 257.258 207.667 257.605L209.934 262.36L204.301 262.183L201.789 257.163C201.588 256.684 201.295 256.25 200.926 255.885C200.575 255.62 200.148 255.476 199.709 255.473H199.277L199.061 262.035L194.017 261.908ZM199.326 252.457L201.436 252.516C201.882 252.499 202.326 252.439 202.761 252.339C203.087 252.29 203.382 252.118 203.585 251.857C203.805 251.6 203.927 251.273 203.928 250.934C203.95 250.71 203.92 250.484 203.842 250.273C203.764 250.062 203.639 249.872 203.477 249.716C202.93 249.353 202.277 249.183 201.622 249.234L199.434 249.165L199.326 252.457Z" fill="white"/>
<path d="M210.739 254.402C210.663 253.274 210.838 252.144 211.25 251.092C211.663 250.04 212.303 249.092 213.125 248.317C213.947 247.542 214.93 246.959 216.004 246.61C217.078 246.261 218.215 246.154 219.335 246.297C220.465 246.26 221.592 246.45 222.647 246.857C223.702 247.263 224.665 247.878 225.478 248.665C226.204 249.502 226.753 250.477 227.09 251.533C227.427 252.589 227.547 253.702 227.441 254.805C227.449 256.41 227.072 257.994 226.342 259.422C225.68 260.592 224.691 261.541 223.496 262.154C222.088 262.828 220.529 263.125 218.972 263.018C217.42 263.031 215.884 262.696 214.478 262.036C213.281 261.386 212.304 260.394 211.671 259.187C210.929 257.707 210.607 256.052 210.739 254.402V254.402ZM215.724 254.579C215.577 255.817 215.857 257.069 216.519 258.126C216.828 258.471 217.204 258.751 217.624 258.949C218.044 259.146 218.499 259.256 218.962 259.274C219.425 259.291 219.888 259.215 220.321 259.05C220.754 258.885 221.15 258.634 221.484 258.312C222.212 257.209 222.557 255.898 222.466 254.579C222.597 253.395 222.309 252.202 221.651 251.209C221.354 250.866 220.986 250.591 220.573 250.403C220.16 250.215 219.711 250.118 219.257 250.119C218.799 250.086 218.339 250.157 217.913 250.327C217.486 250.497 217.104 250.762 216.794 251.101C216.051 252.104 215.673 253.331 215.724 254.579V254.579Z" fill="white"/>
<path d="M229.963 263.097L230.473 246.926L238.785 247.191C239.978 247.189 241.165 247.361 242.308 247.702C243.116 247.978 243.807 248.517 244.271 249.235C244.766 250.023 245 250.948 244.938 251.877C244.943 252.663 244.734 253.435 244.335 254.112C243.936 254.788 243.361 255.344 242.671 255.719C242.11 255.997 241.512 256.192 240.895 256.298C241.349 256.448 241.779 256.663 242.171 256.937C242.464 257.195 242.724 257.489 242.946 257.811C243.199 258.117 243.422 258.446 243.613 258.794L245.88 263.558L240.247 263.382L237.735 258.352C237.535 257.875 237.241 257.444 236.871 257.084C236.519 256.82 236.094 256.673 235.655 256.662H235.223L235.007 263.224L229.963 263.097ZM235.272 253.636L237.382 253.705C237.828 253.688 238.271 253.628 238.706 253.528C239.031 253.475 239.325 253.304 239.531 253.046C239.762 252.773 239.885 252.423 239.874 252.064C239.895 251.841 239.866 251.617 239.788 251.408C239.709 251.198 239.585 251.009 239.423 250.856C238.876 250.493 238.223 250.323 237.568 250.374L235.38 250.305L235.272 253.636Z" fill="white"/>
<path d="M237.902 290.555C237.718 290.559 237.535 290.523 237.366 290.45C237.197 290.377 237.045 290.269 236.921 290.133L228.521 280.928L219.453 289.219C219.202 289.45 218.87 289.571 218.529 289.556C218.189 289.541 217.868 289.392 217.638 289.141L209.238 279.935L200.17 288.227C199.919 288.457 199.587 288.579 199.246 288.564C198.906 288.549 198.585 288.4 198.355 288.148L189.945 278.943L180.887 287.235C180.755 287.355 180.6 287.446 180.431 287.503C180.262 287.561 180.084 287.583 179.906 287.569C179.565 287.548 179.245 287.397 179.013 287.146L170.613 277.951L161.555 286.233C161.302 286.464 160.968 286.585 160.626 286.57C160.284 286.556 159.962 286.406 159.73 286.154C159.615 286.03 159.527 285.883 159.469 285.724C159.411 285.565 159.386 285.396 159.394 285.227C159.402 285.058 159.444 284.892 159.517 284.739C159.59 284.586 159.692 284.449 159.818 284.337L169.828 275.17C170.081 274.939 170.415 274.818 170.757 274.833C171.099 274.847 171.421 274.997 171.653 275.249L180.053 284.454L189.111 276.163C189.368 275.937 189.701 275.817 190.043 275.829C190.384 275.847 190.705 275.999 190.936 276.251L199.336 285.457L208.404 277.165C208.527 277.049 208.673 276.96 208.831 276.901C208.99 276.843 209.159 276.817 209.328 276.824C209.497 276.831 209.662 276.872 209.815 276.944C209.968 277.016 210.106 277.118 210.219 277.243L218.619 286.449L227.687 278.157C227.938 277.927 228.27 277.805 228.611 277.82C228.951 277.835 229.272 277.984 229.502 278.236L238.883 288.433C239.051 288.621 239.161 288.853 239.199 289.102C239.236 289.351 239.201 289.605 239.097 289.835C238.993 290.064 238.825 290.258 238.613 290.393C238.4 290.528 238.154 290.598 237.902 290.595V290.555Z" fill="white"/>
<path d="M82.6076 331.336L76.4744 328.399L70.9888 301.716L73.9622 298.435L82.6076 331.336Z" fill="#407BFF"/>
<path d="M82.6079 331.336L90.7626 326.572L83.7756 304.575L73.9624 298.435L82.6079 331.336Z" fill="#407BFF"/>
<path opacity="0.2" d="M82.6079 331.336L90.7626 326.572L83.7756 304.575L73.9624 298.435L82.6079 331.336Z" fill="black"/>
<path d="M216.313 336.19H215.636C214.334 336.155 213.1 335.603 212.205 334.657C211.31 333.711 210.827 332.448 210.862 331.145C210.897 329.842 211.447 328.607 212.392 327.71C213.337 326.814 214.599 326.33 215.901 326.365C223.457 326.611 239.452 321.964 248.598 313.083C249.151 312.54 249.823 312.137 250.561 311.904C266.056 307.247 271.817 316.649 272.052 317.052L263.613 322.052C263.642 322.115 263.679 322.174 263.721 322.229C263.632 322.102 261.434 319.282 254.447 321.011C242.975 331.484 225.371 336.19 216.313 336.19Z" fill="#263238"/>
<path d="M215.724 342.713L197.854 341.593L196.441 308.603L220.464 309.507L215.724 342.713Z" fill="#407BFF"/>
<path d="M215.724 342.713L219.905 338.557L222.485 317.985L220.464 309.507L215.724 342.713Z" fill="#407BFF"/>
<path opacity="0.2" d="M215.724 342.713L219.905 338.557L222.485 317.985L220.464 309.507L215.724 342.713Z" fill="black"/>
<path d="M319.263 330.226C318.622 330.226 317.998 330.015 317.487 329.627C307.281 321.866 293.494 308.082 288.204 294.79C288.125 294.598 288.069 294.396 288.038 294.191C285.457 278.825 282.994 246.493 282.886 245.128C282.857 244.741 282.904 244.352 283.025 243.983C283.146 243.614 283.339 243.273 283.592 242.979C284.103 242.385 284.828 242.018 285.609 241.959C286.39 241.901 287.162 242.155 287.755 242.666C288.349 243.178 288.715 243.904 288.774 244.686C288.774 245.01 291.296 277.656 293.808 292.894C299.087 305.823 313.434 319.095 321.069 324.931C321.561 325.304 321.923 325.823 322.104 326.414C322.285 327.004 322.276 327.637 322.079 328.222C321.881 328.807 321.505 329.316 321.004 329.675C320.502 330.035 319.9 330.228 319.283 330.226H319.263Z" fill="#263238"/>
<path d="M332.875 331.71C330.598 331.71 328.017 330.678 325.201 328.645C324.568 328.186 324.144 327.495 324.02 326.723C323.897 325.951 324.085 325.161 324.543 324.528C325.001 323.895 325.692 323.47 326.463 323.347C327.234 323.223 328.022 323.411 328.655 323.87C331.089 325.629 332.413 325.835 332.875 325.835C333.655 325.835 334.404 326.145 334.956 326.698C335.508 327.251 335.819 328 335.819 328.782C335.819 329.564 335.508 330.313 334.956 330.866C334.404 331.419 333.655 331.729 332.875 331.729V331.71Z" fill="#263238"/>
<path d="M326.025 328.556C329.175 319.194 342.089 321.041 346.545 322.436C350.35 323.542 354 325.126 357.408 327.152C359.812 328.723 359.851 331.366 356.642 332.869C352.717 334.716 342.747 333.076 342.747 333.076C347.889 335.325 342.747 338.97 333.709 335.394C330.775 334.235 324.916 331.995 326.025 328.556Z" fill="#407BFF"/>
<path d="M294.681 249.136C293.514 257.094 286.929 262.959 281.571 262.173C276.213 261.387 275.997 254.313 277.165 246.316C278.333 238.319 280.452 232.562 285.81 233.348C291.168 234.134 295.849 241.208 294.681 249.136Z" fill="#263238"/>
<path d="M165.166 217.403C165.611 217.403 165.971 217.043 165.971 216.598C165.971 216.153 165.611 215.792 165.166 215.792C164.722 215.792 164.362 216.153 164.362 216.598C164.362 217.043 164.722 217.403 165.166 217.403Z" fill="#263238"/>
<path d="M173.341 222.394C173.341 222.553 173.294 222.709 173.205 222.842C173.117 222.974 172.991 223.077 172.844 223.138C172.697 223.199 172.535 223.215 172.379 223.184C172.223 223.153 172.08 223.076 171.967 222.964C171.855 222.851 171.778 222.707 171.747 222.551C171.716 222.395 171.732 222.233 171.793 222.086C171.854 221.938 171.957 221.813 172.089 221.724C172.221 221.636 172.377 221.588 172.536 221.588C172.75 221.588 172.954 221.673 173.105 221.824C173.256 221.975 173.341 222.18 173.341 222.394Z" fill="#263238"/>
<path d="M174.234 317.592C174.246 317.705 174.235 317.819 174.2 317.927C174.166 318.035 174.109 318.134 174.034 318.218C173.958 318.303 173.866 318.37 173.762 318.416C173.659 318.463 173.547 318.487 173.434 318.487C173.321 318.487 173.209 318.463 173.106 318.416C173.002 318.37 172.91 318.303 172.835 318.218C172.759 318.134 172.702 318.035 172.668 317.927C172.633 317.819 172.622 317.705 172.634 317.592C172.622 317.48 172.633 317.366 172.668 317.258C172.702 317.15 172.759 317.05 172.835 316.966C172.91 316.882 173.002 316.814 173.106 316.768C173.209 316.722 173.321 316.698 173.434 316.698C173.547 316.698 173.659 316.722 173.762 316.768C173.866 316.814 173.958 316.882 174.034 316.966C174.109 317.05 174.166 317.15 174.2 317.258C174.235 317.366 174.246 317.48 174.234 317.592Z" fill="#263238"/>
<path d="M181.613 323.398C181.613 323.558 181.566 323.713 181.478 323.846C181.389 323.978 181.264 324.082 181.117 324.143C180.969 324.204 180.808 324.22 180.652 324.189C180.495 324.157 180.352 324.081 180.24 323.968C180.127 323.855 180.05 323.712 180.019 323.556C179.988 323.399 180.004 323.237 180.065 323.09C180.126 322.943 180.229 322.817 180.362 322.729C180.494 322.64 180.649 322.593 180.809 322.593C181.022 322.593 181.227 322.678 181.378 322.829C181.528 322.98 181.613 323.185 181.613 323.398Z" fill="#263238"/>
<path d="M40.1754 333.056C38.7626 332.99 37.3827 332.607 36.1377 331.935C34.8927 331.263 33.8143 330.32 32.9823 329.175C32.9415 329.122 32.9118 329.062 32.8951 328.997C32.8784 328.933 32.875 328.866 32.885 328.8C32.8951 328.734 32.9185 328.671 32.9537 328.614C32.989 328.558 33.0353 328.509 33.09 328.471C33.1447 328.433 33.2065 328.406 33.2717 328.393C33.337 328.38 33.4042 328.38 33.4694 328.393C33.5346 328.407 33.5964 328.433 33.651 328.471C33.7056 328.51 33.7518 328.558 33.787 328.615C35.622 331.268 39.6749 332.673 41.4413 331.837C41.6182 331.762 41.7758 331.648 41.9025 331.503C41.01 331.11 40.2279 330.503 39.6255 329.735C39.023 328.968 38.6187 328.063 38.4482 327.102C38.2225 325.854 38.0459 324.155 39.0665 323.939C40.4796 323.624 42.3245 327.033 42.9918 329.617C43.1126 330.045 43.1558 330.491 43.1193 330.934C43.6853 331.103 44.2807 331.149 44.8661 331.071C45.1299 331.051 45.3866 330.976 45.6197 330.851C45.8529 330.725 46.0574 330.553 46.2203 330.344C45.5745 329.856 45.0388 329.237 44.6481 328.528C44.2575 327.819 44.0208 327.035 43.9535 326.228C43.5806 323.536 43.8651 323.074 44.1595 322.838C44.2549 322.765 44.3688 322.72 44.4883 322.708C44.6079 322.696 44.7285 322.717 44.8367 322.77C45.8867 323.212 47.1526 327.024 47.3979 329.185C47.4273 329.41 47.4273 329.638 47.3979 329.863C47.821 330.026 48.2695 330.112 48.7227 330.118C49.5548 330.151 50.3778 329.935 51.0877 329.499C50.9503 329.411 50.8227 329.313 50.6952 329.214C49.7138 328.34 49.2624 326.945 49.4391 324.96C49.5666 323.418 49.9199 322.573 50.5381 322.308C50.7376 322.228 50.956 322.207 51.1668 322.249C51.3776 322.291 51.5717 322.393 51.7255 322.544C52.388 323.276 52.883 324.144 53.1762 325.087C53.4694 326.031 53.5537 327.027 53.4232 328.006C53.338 328.414 53.1675 328.799 52.9228 329.136C54.7284 329.45 57.2602 328.939 59.4486 328.399C59.513 328.383 59.5798 328.381 59.6453 328.391C59.7107 328.402 59.7735 328.425 59.83 328.459C59.8865 328.494 59.9356 328.54 59.9746 328.593C60.0135 328.647 60.0415 328.708 60.057 328.772C60.0724 328.837 60.0751 328.904 60.0647 328.969C60.0543 329.035 60.0312 329.098 59.9965 329.154C59.9619 329.211 59.9165 329.26 59.8629 329.299C59.8093 329.338 59.7485 329.366 59.6841 329.381C57.0247 330.04 54.1592 330.58 52.1377 329.991C51.1509 330.742 49.9426 331.142 48.7031 331.13C48.153 331.123 47.6084 331.02 47.0937 330.826C46.8654 331.179 46.5591 331.475 46.1984 331.692C45.8377 331.908 45.4323 332.039 45.0133 332.073C44.2756 332.168 43.5263 332.105 42.8151 331.887C42.5862 332.273 42.2433 332.578 41.8338 332.761C41.3075 332.974 40.7426 333.074 40.1754 333.056V333.056ZM39.3314 324.921C39.1957 325.589 39.2226 326.28 39.4099 326.935C39.5484 327.721 39.874 328.461 40.3591 329.094C40.8443 329.727 41.4747 330.233 42.1969 330.57C42.1832 330.337 42.1437 330.107 42.0791 329.882C41.3137 327.073 39.8417 325.137 39.3314 324.921V324.921ZM44.7974 324.066C44.8038 324.744 44.8595 325.421 44.9642 326.09C45.0724 327.288 45.6009 328.409 46.4558 329.254C46.2143 327.44 45.6528 325.683 44.7974 324.066V324.066ZM50.9699 323.212C50.9699 323.212 50.597 323.398 50.4596 325.039C50.3222 326.68 50.6068 327.81 51.3723 328.468C51.5513 328.615 51.7493 328.737 51.9611 328.831C52.2221 328.557 52.4051 328.218 52.491 327.849C52.6658 326.302 52.2485 324.747 51.3232 323.497C51.1171 323.251 50.9994 323.212 50.9699 323.212V323.212Z" fill="#263238"/>
<path d="M183.812 340.483L186.471 335.865L183.812 331.248H180.966L182.565 335.865L180.966 340.483H183.812Z" fill="#263238"/>
<path d="M181.143 338.272C180.815 338.293 180.486 338.247 180.176 338.136C179.867 338.024 179.584 337.851 179.344 337.626C179.104 337.401 178.913 337.129 178.783 336.827C178.652 336.525 178.585 336.199 178.585 335.87C178.585 335.541 178.652 335.216 178.783 334.914C178.913 334.612 179.104 334.34 179.344 334.115C179.584 333.89 179.867 333.716 180.176 333.605C180.486 333.494 180.815 333.447 181.143 333.468L176.628 332.564L175.421 336.219L177.443 339.304L181.143 338.272Z" fill="#263238"/>
<path d="M181.535 331.248H176.206L173.547 335.866L176.206 340.483H181.535L184.194 335.866L181.535 331.248ZM178.875 338.272C178.4 338.274 177.934 338.135 177.537 337.872C177.14 337.608 176.831 337.233 176.647 336.793C176.464 336.354 176.415 335.87 176.506 335.402C176.598 334.934 176.826 334.505 177.162 334.167C177.498 333.829 177.926 333.599 178.393 333.506C178.86 333.412 179.344 333.459 179.783 333.641C180.223 333.823 180.599 334.131 180.864 334.527C181.129 334.923 181.27 335.389 181.27 335.866C181.27 336.502 181.018 337.113 180.569 337.564C180.12 338.015 179.511 338.27 178.875 338.272V338.272Z" fill="#407BFF"/>
<path d="M369.291 330.943L367.319 327.515L369.291 324.086H371.411L370.214 327.515L371.411 330.943H369.291Z" fill="#407BFF"/>
<path d="M371.264 329.293C371.509 329.311 371.755 329.279 371.987 329.197C372.219 329.116 372.432 328.987 372.612 328.82C372.792 328.653 372.935 328.45 373.034 328.225C373.132 327.999 373.182 327.756 373.182 327.51C373.182 327.264 373.132 327.02 373.034 326.795C372.935 326.57 372.792 326.367 372.612 326.199C372.432 326.032 372.219 325.904 371.987 325.822C371.755 325.741 371.509 325.708 371.264 325.727L374.62 325.059L375.513 327.77L374.022 330.059L371.264 329.293Z" fill="#407BFF"/>
<path d="M370.979 324.076H374.905L376.867 327.505L374.905 330.934H370.979L369.017 327.505L370.979 324.076ZM372.942 329.293C373.296 329.295 373.642 329.192 373.937 328.996C374.232 328.801 374.462 328.523 374.599 328.196C374.736 327.869 374.772 327.51 374.705 327.162C374.637 326.815 374.467 326.495 374.218 326.244C373.969 325.993 373.65 325.822 373.304 325.752C372.957 325.682 372.597 325.717 372.271 325.852C371.944 325.987 371.664 326.216 371.467 326.51C371.271 326.805 371.166 327.151 371.166 327.505C371.164 327.74 371.21 327.973 371.299 328.191C371.388 328.408 371.52 328.606 371.686 328.772C371.852 328.938 372.049 329.07 372.267 329.159C372.484 329.249 372.717 329.294 372.952 329.293H372.942Z" fill="#263238"/>
<path d="M295.8 335.492H300.236C300.791 335.489 301.323 335.267 301.714 334.873C302.106 334.479 302.326 333.945 302.326 333.39V333.39C302.326 332.834 302.106 332.3 301.714 331.906C301.323 331.512 300.791 331.29 300.236 331.287H295.8C295.243 331.287 294.709 331.509 294.315 331.903C293.921 332.297 293.7 332.832 293.7 333.39V333.39C293.7 333.947 293.921 334.482 294.315 334.876C294.709 335.27 295.243 335.492 295.8 335.492V335.492Z" fill="#263238"/>
<path d="M288.666 331.523C289.078 330.774 289.7 330.161 290.455 329.761C291.21 329.361 292.065 329.191 292.916 329.272C293.766 329.353 294.575 329.682 295.241 330.217C295.907 330.752 296.402 331.471 296.665 332.285C296.929 333.099 296.948 333.972 296.721 334.796C296.495 335.621 296.032 336.361 295.39 336.926C294.748 337.49 293.955 337.854 293.109 337.973C292.263 338.092 291.401 337.96 290.629 337.594C289.568 337.047 288.766 336.101 288.398 334.964C288.03 333.826 288.127 332.589 288.666 331.523Z" fill="#407BFF"/>
<path d="M289.873 337.594L291.089 338.167L295.315 329.192L294.099 328.618L289.873 337.594Z" fill="#263238"/>
</g>
<defs>
<clipPath id="clip0_728_249">
<rect width="403" height="344" fill="white"/>
</clipPath>
</defs>
</svg>
