<svg width="145" height="38" viewBox="0 0 145 38" fill="none" xmlns="http://www.w3.org/2000/svg">
<g filter="url(#filter0_dd_36_27695)">
<g clip-path="url(#clip0_36_27695)">
<rect x="3" y="2" width="32" height="32" rx="8" fill="white"/>
<rect x="3" y="2" width="32" height="32" rx="8" fill="url(#paint0_linear_36_27695)"/>
<path fill-rule="evenodd" clip-rule="evenodd" d="M19 4.03885C11.2895 4.03885 5.03885 10.2895 5.03885 18C5.03885 25.7106 11.2895 31.9612 19 31.9612C26.7106 31.9612 32.9612 25.7106 32.9612 18C32.9612 10.2895 26.7106 4.03885 19 4.03885ZM4.96118 18C4.96118 10.2466 11.2466 3.96118 19 3.96118C26.7535 3.96118 33.0389 10.2466 33.0389 18C33.0389 25.7535 26.7535 32.0389 19 32.0389C11.2466 32.0389 4.96118 25.7535 4.96118 18Z" fill="#D0D5DD"/>
<path fill-rule="evenodd" clip-rule="evenodd" d="M19 14.0779C16.8338 14.0779 15.0777 15.834 15.0777 18.0002C15.0777 20.1665 16.8338 21.9226 19 21.9226C21.1662 21.9226 22.9223 20.1665 22.9223 18.0002C22.9223 15.834 21.1662 14.0779 19 14.0779ZM15 18.0002C15 15.7911 16.7909 14.0002 19 14.0002C21.2091 14.0002 23 15.7911 23 18.0002C23 20.2094 21.2091 22.0002 19 22.0002C16.7909 22.0002 15 20.2094 15 18.0002Z" fill="#D0D5DD"/>
<path fill-rule="evenodd" clip-rule="evenodd" d="M19 15.3201C17.52 15.3201 16.3203 16.5198 16.3203 17.9997C16.3203 19.4796 17.52 20.6793 19 20.6793C20.4799 20.6793 21.6796 19.4796 21.6796 17.9997C21.6796 16.5198 20.4799 15.3201 19 15.3201ZM16.2427 17.9997C16.2427 16.4769 17.4772 15.2424 19 15.2424C20.5228 15.2424 21.7572 16.4769 21.7572 17.9997C21.7572 19.5225 20.5228 20.757 19 20.757C17.4772 20.757 16.2427 19.5225 16.2427 17.9997Z" fill="#D0D5DD"/>
<path d="M18.9612 2H19.0389V34H18.9612V2Z" fill="#D0D5DD"/>
<path d="M35 17.9609L35 18.0386L3 18.0386L3 17.9609L35 17.9609Z" fill="#D0D5DD"/>
<path d="M29.6021 2H29.6797V34H29.6021V2Z" fill="#D0D5DD"/>
<path d="M13.6409 2H13.7185V34H13.6409V2Z" fill="#D0D5DD"/>
<path d="M24.2815 2H24.3592V34H24.2815V2Z" fill="#D0D5DD"/>
<path d="M8.32031 2H8.39798V34H8.32031V2Z" fill="#D0D5DD"/>
<path d="M35 28.6016L35 28.6792L3 28.6792L3 28.6016L35 28.6016Z" fill="#D0D5DD"/>
<path d="M35 12.6406L35 12.7183L3 12.7183L3 12.6406L35 12.6406Z" fill="#D0D5DD"/>
<path d="M35 23.2812L35 23.3589L3 23.3589L3 23.2812L35 23.2812Z" fill="#D0D5DD"/>
<path d="M35 7.32031L35 7.39798L3 7.39798L3 7.32031L35 7.32031Z" fill="#D0D5DD"/>
<g filter="url(#filter1_dd_36_27695)">
<circle cx="19" cy="18" r="8" fill="url(#paint1_linear_36_27695)"/>
</g>
<g filter="url(#filter2_b_36_27695)">
<path d="M3 18H35V21.2C35 25.6804 35 27.9206 34.1281 29.6319C33.3611 31.1372 32.1372 32.3611 30.6319 33.1281C28.9206 34 26.6804 34 22.2 34H15.8C11.3196 34 9.07937 34 7.36808 33.1281C5.86278 32.3611 4.63893 31.1372 3.87195 29.6319C3 27.9206 3 25.6804 3 21.2V18Z" fill="white" fill-opacity="0.2"/>
</g>
</g>
<rect x="3.15" y="2.15" width="31.7" height="31.7" rx="7.85" stroke="#D0D5DD" stroke-width="0.3"/>
</g>
<path d="M45.2912 24V10.9091H53.6776V12.897H47.6626V16.451H53.1023V18.4389H47.6626V24H45.2912ZM59.2978 24.1918C58.339 24.1918 57.508 23.9808 56.8049 23.5589C56.1017 23.1371 55.5563 22.5469 55.1685 21.7884C54.785 21.0298 54.5932 20.1435 54.5932 19.1293C54.5932 18.1151 54.785 17.2266 55.1685 16.4638C55.5563 15.701 56.1017 15.1087 56.8049 14.6868C57.508 14.2649 58.339 14.054 59.2978 14.054C60.2566 14.054 61.0875 14.2649 61.7907 14.6868C62.4938 15.1087 63.0371 15.701 63.4206 16.4638C63.8084 17.2266 64.0023 18.1151 64.0023 19.1293C64.0023 20.1435 63.8084 21.0298 63.4206 21.7884C63.0371 22.5469 62.4938 23.1371 61.7907 23.5589C61.0875 23.9808 60.2566 24.1918 59.2978 24.1918ZM59.3105 22.3381C59.8304 22.3381 60.2651 22.1953 60.6145 21.9098C60.964 21.62 61.2239 21.2322 61.3944 20.7464C61.5691 20.2607 61.6564 19.7195 61.6564 19.1229C61.6564 18.522 61.5691 17.9787 61.3944 17.4929C61.2239 17.0028 60.964 16.6129 60.6145 16.3232C60.2651 16.0334 59.8304 15.8885 59.3105 15.8885C58.7779 15.8885 58.3347 16.0334 57.981 16.3232C57.6316 16.6129 57.3695 17.0028 57.1948 17.4929C57.0243 17.9787 56.9391 18.522 56.9391 19.1229C56.9391 19.7195 57.0243 20.2607 57.1948 20.7464C57.3695 21.2322 57.6316 21.62 57.981 21.9098C58.3347 22.1953 58.7779 22.3381 59.3105 22.3381ZM73.7262 16.777L71.6168 17.0071C71.5572 16.794 71.4528 16.5938 71.3036 16.4062C71.1587 16.2188 70.9627 16.0675 70.7156 15.9524C70.4684 15.8374 70.1658 15.7798 69.8079 15.7798C69.3263 15.7798 68.9215 15.8842 68.5934 16.093C68.2695 16.3018 68.1097 16.5724 68.114 16.9048C68.1097 17.1903 68.2141 17.4226 68.4272 17.6016C68.6445 17.7805 69.0025 17.9276 69.5011 18.0426L71.1758 18.4006C72.1048 18.6009 72.7951 18.9183 73.2468 19.353C73.7028 19.7876 73.9329 20.3565 73.9371 21.0597C73.9329 21.6776 73.7518 22.223 73.3938 22.696C73.0401 23.1648 72.5479 23.5312 71.9173 23.7955C71.2866 24.0597 70.5621 24.1918 69.744 24.1918C68.5423 24.1918 67.5749 23.9403 66.842 23.4375C66.109 22.9304 65.6722 22.2251 65.5316 21.3217L67.788 21.1044C67.8903 21.5476 68.1076 21.8821 68.44 22.108C68.7724 22.3338 69.2049 22.4467 69.7376 22.4467C70.2873 22.4467 70.7283 22.3338 71.0607 22.108C71.3974 21.8821 71.5657 21.603 71.5657 21.2706C71.5657 20.9893 71.457 20.7571 71.2397 20.5739C71.0266 20.3906 70.6942 20.25 70.2425 20.152L68.5678 19.8004C67.6261 19.6044 66.9293 19.2741 66.4776 18.8097C66.0259 18.3409 65.8022 17.7486 65.8065 17.0327C65.8022 16.4276 65.9663 15.9034 66.2987 15.4602C66.6353 15.0128 67.1019 14.6676 67.6985 14.4247C68.2994 14.1776 68.9918 14.054 69.7759 14.054C70.9265 14.054 71.832 14.299 72.4925 14.7891C73.1573 15.2791 73.5685 15.9418 73.7262 16.777ZM83.6051 16.777L81.4957 17.0071C81.4361 16.794 81.3317 16.5938 81.1825 16.4062C81.0376 16.2188 80.8416 16.0675 80.5945 15.9524C80.3473 15.8374 80.0447 15.7798 79.6868 15.7798C79.2053 15.7798 78.8004 15.8842 78.4723 16.093C78.1484 16.3018 77.9886 16.5724 77.9929 16.9048C77.9886 17.1903 78.093 17.4226 78.3061 17.6016C78.5234 17.7805 78.8814 17.9276 79.38 18.0426L81.0547 18.4006C81.9837 18.6009 82.674 18.9183 83.1257 19.353C83.5817 19.7876 83.8118 20.3565 83.8161 21.0597C83.8118 21.6776 83.6307 22.223 83.2727 22.696C82.919 23.1648 82.4268 23.5312 81.7962 23.7955C81.1655 24.0597 80.4411 24.1918 79.6229 24.1918C78.4212 24.1918 77.4538 23.9403 76.7209 23.4375C75.9879 22.9304 75.5511 22.2251 75.4105 21.3217L77.6669 21.1044C77.7692 21.5476 77.9865 21.8821 78.3189 22.108C78.6513 22.3338 79.0838 22.4467 79.6165 22.4467C80.1662 22.4467 80.6072 22.3338 80.9396 22.108C81.2763 21.8821 81.4446 21.603 81.4446 21.2706C81.4446 20.9893 81.3359 20.7571 81.1186 20.5739C80.9055 20.3906 80.5732 20.25 80.1214 20.152L78.4467 19.8004C77.505 19.6044 76.8082 19.2741 76.3565 18.8097C75.9048 18.3409 75.6811 17.7486 75.6854 17.0327C75.6811 16.4276 75.8452 15.9034 76.1776 15.4602C76.5142 15.0128 76.9808 14.6676 77.5774 14.4247C78.1783 14.1776 78.8707 14.054 79.6548 14.054C80.8054 14.054 81.7109 14.299 82.3714 14.7891C83.0362 15.2791 83.4474 15.9418 83.6051 16.777ZM85.8263 24V10.9091H94.2127V12.897H88.1978V16.451H93.6374V18.4389H88.1978V24H85.8263ZM99.8329 24.1918C98.8741 24.1918 98.0431 23.9808 97.34 23.5589C96.6369 23.1371 96.0914 22.5469 95.7037 21.7884C95.3201 21.0298 95.1284 20.1435 95.1284 19.1293C95.1284 18.1151 95.3201 17.2266 95.7037 16.4638C96.0914 15.701 96.6369 15.1087 97.34 14.6868C98.0431 14.2649 98.8741 14.054 99.8329 14.054C100.792 14.054 101.623 14.2649 102.326 14.6868C103.029 15.1087 103.572 15.701 103.956 16.4638C104.344 17.2266 104.537 18.1151 104.537 19.1293C104.537 20.1435 104.344 21.0298 103.956 21.7884C103.572 22.5469 103.029 23.1371 102.326 23.5589C101.623 23.9808 100.792 24.1918 99.8329 24.1918ZM99.8457 22.3381C100.366 22.3381 100.8 22.1953 101.15 21.9098C101.499 21.62 101.759 21.2322 101.93 20.7464C102.104 20.2607 102.192 19.7195 102.192 19.1229C102.192 18.522 102.104 17.9787 101.93 17.4929C101.759 17.0028 101.499 16.6129 101.15 16.3232C100.8 16.0334 100.366 15.8885 99.8457 15.8885C99.313 15.8885 98.8699 16.0334 98.5162 16.3232C98.1667 16.6129 97.9047 17.0028 97.7299 17.4929C97.5595 17.9787 97.4743 18.522 97.4743 19.1229C97.4743 19.7195 97.5595 20.2607 97.7299 20.7464C97.9047 21.2322 98.1667 21.62 98.5162 21.9098C98.8699 22.1953 99.313 22.3381 99.8457 22.3381ZM108.815 10.9091V24H106.501V10.9091H108.815ZM111.195 24V14.1818H113.509V24H111.195ZM112.358 12.7884C111.992 12.7884 111.676 12.6669 111.412 12.424C111.148 12.1768 111.016 11.8807 111.016 11.5355C111.016 11.1861 111.148 10.8899 111.412 10.647C111.676 10.3999 111.992 10.2763 112.358 10.2763C112.729 10.2763 113.044 10.3999 113.304 10.647C113.568 10.8899 113.7 11.1861 113.7 11.5355C113.7 11.8807 113.568 12.1768 113.304 12.424C113.044 12.6669 112.729 12.7884 112.358 12.7884ZM120.171 24.1918C119.212 24.1918 118.381 23.9808 117.678 23.5589C116.975 23.1371 116.429 22.5469 116.042 21.7884C115.658 21.0298 115.466 20.1435 115.466 19.1293C115.466 18.1151 115.658 17.2266 116.042 16.4638C116.429 15.701 116.975 15.1087 117.678 14.6868C118.381 14.2649 119.212 14.054 120.171 14.054C121.13 14.054 121.961 14.2649 122.664 14.6868C123.367 15.1087 123.91 15.701 124.294 16.4638C124.681 17.2266 124.875 18.1151 124.875 19.1293C124.875 20.1435 124.681 21.0298 124.294 21.7884C123.91 22.5469 123.367 23.1371 122.664 23.5589C121.961 23.9808 121.13 24.1918 120.171 24.1918ZM120.184 22.3381C120.703 22.3381 121.138 22.1953 121.488 21.9098C121.837 21.62 122.097 21.2322 122.267 20.7464C122.442 20.2607 122.529 19.7195 122.529 19.1229C122.529 18.522 122.442 17.9787 122.267 17.4929C122.097 17.0028 121.837 16.6129 121.488 16.3232C121.138 16.0334 120.703 15.8885 120.184 15.8885C119.651 15.8885 119.208 16.0334 118.854 16.3232C118.505 16.6129 118.243 17.0028 118.068 17.4929C117.897 17.9787 117.812 18.522 117.812 19.1229C117.812 19.7195 117.897 20.2607 118.068 20.7464C118.243 21.2322 118.505 21.62 118.854 21.9098C119.208 22.1953 119.651 22.3381 120.184 22.3381Z" fill="black"/>
<defs>
<filter id="filter0_dd_36_27695" x="0" y="0" width="38" height="38" filterUnits="userSpaceOnUse" color-interpolation-filters="sRGB">
<feFlood flood-opacity="0" result="BackgroundImageFix"/>
<feColorMatrix in="SourceAlpha" type="matrix" values="0 0 0 0 0 0 0 0 0 0 0 0 0 0 0 0 0 0 127 0" result="hardAlpha"/>
<feOffset dy="1"/>
<feGaussianBlur stdDeviation="1"/>
<feColorMatrix type="matrix" values="0 0 0 0 0.0627451 0 0 0 0 0.0941176 0 0 0 0 0.156863 0 0 0 0.06 0"/>
<feBlend mode="normal" in2="BackgroundImageFix" result="effect1_dropShadow_36_27695"/>
<feColorMatrix in="SourceAlpha" type="matrix" values="0 0 0 0 0 0 0 0 0 0 0 0 0 0 0 0 0 0 127 0" result="hardAlpha"/>
<feOffset dy="1"/>
<feGaussianBlur stdDeviation="1.5"/>
<feColorMatrix type="matrix" values="0 0 0 0 0.0627451 0 0 0 0 0.0941176 0 0 0 0 0.156863 0 0 0 0.1 0"/>
<feBlend mode="normal" in2="effect1_dropShadow_36_27695" result="effect2_dropShadow_36_27695"/>
<feBlend mode="normal" in="SourceGraphic" in2="effect2_dropShadow_36_27695" result="shape"/>
</filter>
<filter id="filter1_dd_36_27695" x="8" y="8" width="22" height="22" filterUnits="userSpaceOnUse" color-interpolation-filters="sRGB">
<feFlood flood-opacity="0" result="BackgroundImageFix"/>
<feColorMatrix in="SourceAlpha" type="matrix" values="0 0 0 0 0 0 0 0 0 0 0 0 0 0 0 0 0 0 127 0" result="hardAlpha"/>
<feOffset dy="1"/>
<feGaussianBlur stdDeviation="1"/>
<feColorMatrix type="matrix" values="0 0 0 0 0.0627451 0 0 0 0 0.0941176 0 0 0 0 0.156863 0 0 0 0.06 0"/>
<feBlend mode="normal" in2="BackgroundImageFix" result="effect1_dropShadow_36_27695"/>
<feColorMatrix in="SourceAlpha" type="matrix" values="0 0 0 0 0 0 0 0 0 0 0 0 0 0 0 0 0 0 127 0" result="hardAlpha"/>
<feOffset dy="1"/>
<feGaussianBlur stdDeviation="1.5"/>
<feColorMatrix type="matrix" values="0 0 0 0 0.0627451 0 0 0 0 0.0941176 0 0 0 0 0.156863 0 0 0 0.1 0"/>
<feBlend mode="normal" in2="effect1_dropShadow_36_27695" result="effect2_dropShadow_36_27695"/>
<feBlend mode="normal" in="SourceGraphic" in2="effect2_dropShadow_36_27695" result="shape"/>
</filter>
<filter id="filter2_b_36_27695" x="-2" y="13" width="42" height="26" filterUnits="userSpaceOnUse" color-interpolation-filters="sRGB">
<feFlood flood-opacity="0" result="BackgroundImageFix"/>
<feGaussianBlur in="BackgroundImageFix" stdDeviation="2.5"/>
<feComposite in2="SourceAlpha" operator="in" result="effect1_backgroundBlur_36_27695"/>
<feBlend mode="normal" in="SourceGraphic" in2="effect1_backgroundBlur_36_27695" result="shape"/>
</filter>
<linearGradient id="paint0_linear_36_27695" x1="19" y1="2" x2="19" y2="34" gradientUnits="userSpaceOnUse">
<stop stop-color="white"/>
<stop offset="1" stop-color="#D0D5DD"/>
</linearGradient>
<linearGradient id="paint1_linear_36_27695" x1="15" y1="26" x2="23" y2="10" gradientUnits="userSpaceOnUse">
<stop stop-color="#53389E"/>
<stop offset="1" stop-color="#6941C6"/>
</linearGradient>
<clipPath id="clip0_36_27695">
<rect x="3" y="2" width="32" height="32" rx="8" fill="white"/>
</clipPath>
</defs>
</svg>
